<svg width="208" height="208" viewBox="0 0 208 208" fill="none" xmlns="http://www.w3.org/2000/svg">
<g filter="url(#filter0_d)">
<path d="M33.2466 25.822L108.372 0L177.141 25.822L204 101.444L177.141 173.376L108.372 200L33.2466 173.376L4 101.444L33.2466 25.822Z" fill="#C4C4C4" fill-opacity="0.15"/>
<path d="M6.15149 101.425L34.7764 27.411L108.342 2.12512L175.568 27.3675L201.872 101.427L175.582 171.835L108.341 197.867L34.7611 171.791L6.15149 101.425Z" stroke="#B22222" stroke-width="4"/>
</g>
<path d="M64.2816 113.46C64.3416 113.46 64.3716 113.55 64.3716 113.73C64.3716 113.91 64.3416 114 64.2816 114H59.5566C59.0166 114 58.0266 113.1 56.5866 111.3C55.1466 109.5 53.4216 107.01 51.4116 103.83C50.6316 103.95 50.0016 104.01 49.5216 104.01C49.1016 104.01 48.4416 103.98 47.5416 103.92V110.355C47.5416 111.285 47.6166 111.96 47.7666 112.38C47.9466 112.8 48.2616 113.085 48.7116 113.235C49.1916 113.385 49.9566 113.46 51.0066 113.46C51.0966 113.46 51.1416 113.55 51.1416 113.73C51.1416 113.91 51.0966 114 51.0066 114C50.1966 114 49.5666 113.985 49.1166 113.955L46.3716 113.91L43.7616 113.955C43.2816 113.985 42.6066 114 41.7366 114C41.6766 114 41.6466 113.91 41.6466 113.73C41.6466 113.55 41.6766 113.46 41.7366 113.46C42.7866 113.46 43.5516 113.385 44.0316 113.235C44.5116 113.085 44.8416 112.8 45.0216 112.38C45.2016 111.93 45.2916 111.255 45.2916 110.355V96.585C45.2916 95.685 45.2016 95.025 45.0216 94.605C44.8416 94.185 44.5116 93.9 44.0316 93.75C43.5516 93.57 42.8016 93.48 41.7816 93.48C41.7216 93.48 41.6916 93.39 41.6916 93.21C41.6916 93.03 41.7216 92.94 41.7816 92.94L43.8066 92.985C44.8866 93.045 45.7416 93.075 46.3716 93.075C46.9416 93.075 47.4516 93.06 47.9016 93.03C48.3516 93 48.7266 92.97 49.0266 92.94C49.9566 92.85 50.8266 92.805 51.6366 92.805C53.4666 92.805 54.8616 93.18 55.8216 93.93C56.8116 94.68 57.3066 95.76 57.3066 97.17C57.3066 98.4 56.9616 99.525 56.2716 100.545C55.6116 101.565 54.7116 102.39 53.5716 103.02C55.2816 105.78 56.7066 107.895 57.8466 109.365C59.0166 110.835 60.0966 111.885 61.0866 112.515C62.0766 113.145 63.1416 113.46 64.2816 113.46ZM47.5416 103.065C48.1116 103.185 48.8766 103.245 49.8366 103.245C51.7266 103.245 53.0466 102.84 53.7966 102.03C54.5466 101.19 54.9216 99.975 54.9216 98.385C54.9216 95.055 53.4216 93.39 50.4216 93.39C49.2216 93.39 48.4416 93.645 48.0816 94.155C47.7216 94.665 47.5416 95.505 47.5416 96.675V103.065ZM88.4266 114.54C86.3266 114.54 84.4516 114.045 82.8016 113.055C81.1816 112.065 79.9216 110.745 79.0216 109.095C78.1516 107.415 77.7166 105.6 77.7166 103.65C77.7166 101.31 78.3316 99.285 79.5616 97.575C80.7916 95.865 82.3366 94.575 84.1966 93.705C86.0866 92.835 88.0066 92.4 89.9566 92.4C92.0566 92.4 93.9016 92.91 95.4916 93.93C97.0816 94.95 98.2966 96.285 99.1366 97.935C100.007 99.585 100.442 101.31 100.442 103.11C100.442 105.15 99.9016 107.055 98.8216 108.825C97.7416 110.565 96.2716 111.96 94.4116 113.01C92.5816 114.03 90.5866 114.54 88.4266 114.54ZM89.6416 113.64C92.1316 113.64 94.1116 112.815 95.5816 111.165C97.0816 109.515 97.8316 107.22 97.8316 104.28C97.8316 102.27 97.4716 100.44 96.7516 98.79C96.0316 97.11 94.9666 95.775 93.5566 94.785C92.1466 93.795 90.4516 93.3 88.4716 93.3C85.8916 93.3 83.8816 94.125 82.4416 95.775C81.0316 97.425 80.3266 99.69 80.3266 102.57C80.3266 104.61 80.6866 106.47 81.4066 108.15C82.1566 109.83 83.2366 111.165 84.6466 112.155C86.0566 113.145 87.7216 113.64 89.6416 113.64ZM122.136 110.175C122.136 111.045 122.211 111.705 122.361 112.155C122.541 112.575 122.871 112.875 123.351 113.055C123.831 113.235 124.551 113.325 125.511 113.325H129.111C132.051 113.325 133.776 111.525 134.286 107.925C134.286 107.865 134.346 107.835 134.466 107.835C134.556 107.835 134.631 107.85 134.691 107.88C134.781 107.91 134.826 107.955 134.826 108.015C134.616 109.305 134.511 111.075 134.511 113.325C134.511 113.565 134.451 113.745 134.331 113.865C134.241 113.955 134.076 114 133.836 114H116.331C116.271 114 116.241 113.91 116.241 113.73C116.241 113.55 116.271 113.46 116.331 113.46C117.351 113.46 118.101 113.385 118.581 113.235C119.061 113.085 119.376 112.8 119.526 112.38C119.706 111.93 119.796 111.255 119.796 110.355V96.585C119.796 95.685 119.706 95.025 119.526 94.605C119.376 94.185 119.061 93.9 118.581 93.75C118.101 93.57 117.351 93.48 116.331 93.48C116.271 93.48 116.241 93.39 116.241 93.21C116.241 93.03 116.271 92.94 116.331 92.94L118.311 92.985C119.391 93.045 120.261 93.075 120.921 93.075C121.671 93.075 122.586 93.045 123.666 92.985L125.556 92.94C125.616 92.94 125.646 93.03 125.646 93.21C125.646 93.39 125.616 93.48 125.556 93.48C124.536 93.48 123.786 93.57 123.306 93.75C122.856 93.9 122.541 94.2 122.361 94.65C122.211 95.07 122.136 95.73 122.136 96.63V110.175ZM155.522 110.175C155.522 111.045 155.597 111.705 155.747 112.155C155.927 112.575 156.257 112.875 156.737 113.055C157.217 113.235 157.937 113.325 158.897 113.325H162.497C165.437 113.325 167.162 111.525 167.672 107.925C167.672 107.865 167.732 107.835 167.852 107.835C167.942 107.835 168.017 107.85 168.077 107.88C168.167 107.91 168.212 107.955 168.212 108.015C168.002 109.305 167.897 111.075 167.897 113.325C167.897 113.565 167.837 113.745 167.717 113.865C167.627 113.955 167.462 114 167.222 114H149.717C149.657 114 149.627 113.91 149.627 113.73C149.627 113.55 149.657 113.46 149.717 113.46C150.737 113.46 151.487 113.385 151.967 113.235C152.447 113.085 152.762 112.8 152.912 112.38C153.092 111.93 153.182 111.255 153.182 110.355V96.585C153.182 95.685 153.092 95.025 152.912 94.605C152.762 94.185 152.447 93.9 151.967 93.75C151.487 93.57 150.737 93.48 149.717 93.48C149.657 93.48 149.627 93.39 149.627 93.21C149.627 93.03 149.657 92.94 149.717 92.94L151.697 92.985C152.777 93.045 153.647 93.075 154.307 93.075C155.057 93.075 155.972 93.045 157.052 92.985L158.942 92.94C159.002 92.94 159.032 93.03 159.032 93.21C159.032 93.39 159.002 93.48 158.942 93.48C157.922 93.48 157.172 93.57 156.692 93.75C156.242 93.9 155.927 94.2 155.747 94.65C155.597 95.07 155.522 95.73 155.522 96.63V110.175Z" fill="#F8F8FF"/>
<path d="M51.4116 103.83L53.1022 102.761L52.4023 101.654L51.1075 101.853L51.4116 103.83ZM47.5416 103.92L47.6746 101.924L45.5416 101.782V103.92H47.5416ZM47.7666 112.38L45.8831 113.053L45.9039 113.111L45.9283 113.168L47.7666 112.38ZM48.7116 113.235L48.0791 115.132L48.097 115.138L48.1151 115.144L48.7116 113.235ZM49.1166 113.955L49.2496 111.959L49.1996 111.956L49.1494 111.955L49.1166 113.955ZM46.3716 113.91L46.4044 111.91L46.3708 111.91L46.3371 111.91L46.3716 113.91ZM43.7616 113.955L43.7271 111.955L43.6819 111.956L43.6368 111.959L43.7616 113.955ZM45.0216 112.38L46.8599 113.168L46.8695 113.145L46.8786 113.123L45.0216 112.38ZM44.0316 93.75L43.3294 95.6227L43.3817 95.6423L43.4351 95.659L44.0316 93.75ZM41.7816 92.94L41.826 90.9405L41.8038 90.94H41.7816V92.94ZM43.8066 92.985L43.9175 90.9881L43.8843 90.9862L43.851 90.9855L43.8066 92.985ZM49.0266 92.94L48.834 90.9493L48.8276 90.9499L49.0266 92.94ZM55.8216 93.93L54.5903 95.506L54.602 95.5152L54.6139 95.5242L55.8216 93.93ZM56.2716 100.545L54.615 99.4244L54.6036 99.4413L54.5925 99.4585L56.2716 100.545ZM53.5716 103.02L52.6042 101.27L50.7643 102.286L51.8715 104.073L53.5716 103.02ZM57.8466 109.365L56.2662 110.591L56.2739 110.601L56.2818 110.61L57.8466 109.365ZM61.0866 112.515L60.0128 114.202L60.0128 114.202L61.0866 112.515ZM47.5416 103.065H45.5416V104.688L47.1296 105.022L47.5416 103.065ZM53.7966 102.03L55.2641 103.389L55.2764 103.376L55.2885 103.362L53.7966 102.03ZM48.0816 94.155L49.7155 95.3084L49.7155 95.3084L48.0816 94.155ZM64.2816 115.46C63.7315 115.46 63.2453 115.23 62.9068 114.891C62.6173 114.602 62.4982 114.299 62.4517 114.16C62.4002 114.005 62.384 113.884 62.3782 113.833C62.3717 113.774 62.3716 113.737 62.3716 113.73H66.3716C66.3716 113.582 66.3657 113.253 66.2465 112.895C66.1444 112.589 65.6401 111.46 64.2816 111.46V115.46ZM62.3716 113.73C62.3716 113.723 62.3717 113.686 62.3782 113.627C62.384 113.576 62.4002 113.455 62.4517 113.3C62.4982 113.161 62.6173 112.858 62.9068 112.569C63.2453 112.23 63.7315 112 64.2816 112V116C65.6401 116 66.1444 114.871 66.2465 114.565C66.3657 114.207 66.3716 113.878 66.3716 113.73H62.3716ZM64.2816 112H59.5566V116H64.2816V112ZM59.5566 112C59.9388 112 60.1419 112.143 60.0813 112.107C60.052 112.09 59.9459 112.019 59.7544 111.845C59.3737 111.499 58.8422 110.918 58.1483 110.051L55.0249 112.549C55.771 113.482 56.4545 114.251 57.0638 114.805C57.3673 115.081 57.6999 115.347 58.0532 115.555C58.375 115.744 58.9044 116 59.5566 116V112ZM58.1483 110.051C56.7742 108.333 55.094 105.913 53.1022 102.761L49.721 104.899C51.7492 108.107 53.519 110.667 55.0249 112.549L58.1483 110.051ZM51.1075 101.853C50.3729 101.966 49.856 102.01 49.5216 102.01V106.01C50.1472 106.01 50.8903 105.934 51.7157 105.807L51.1075 101.853ZM49.5216 102.01C49.1725 102.01 48.5686 101.984 47.6746 101.924L47.4086 105.916C48.3146 105.976 49.0307 106.01 49.5216 106.01V102.01ZM45.5416 103.92V110.355H49.5416V103.92H45.5416ZM45.5416 110.355C45.5416 111.321 45.6104 112.289 45.8831 113.053L49.6501 111.707C49.6508 111.709 49.641 111.682 49.6272 111.615C49.6137 111.549 49.599 111.458 49.5856 111.338C49.5586 111.095 49.5416 110.771 49.5416 110.355H45.5416ZM45.9283 113.168C46.3429 114.135 47.1107 114.81 48.0791 115.132L49.3441 111.338C49.3509 111.34 49.4092 111.362 49.4797 111.426C49.5516 111.491 49.5901 111.558 49.6049 111.592L45.9283 113.168ZM48.1151 115.144C48.9021 115.39 49.9246 115.46 51.0066 115.46V111.46C49.9886 111.46 49.4811 111.38 49.3082 111.326L48.1151 115.144ZM51.0066 115.46C50.6791 115.46 50.3034 115.372 49.9563 115.141C49.6217 114.918 49.4264 114.637 49.319 114.422C49.1325 114.049 49.1416 113.742 49.1416 113.73H53.1416C53.1416 113.538 53.1282 113.096 52.8967 112.633C52.7668 112.373 52.5434 112.058 52.1751 111.813C51.7942 111.559 51.3791 111.46 51.0066 111.46V115.46ZM49.1416 113.73C49.1416 113.718 49.1325 113.411 49.319 113.038C49.4264 112.823 49.6217 112.542 49.9563 112.319C50.3034 112.088 50.6791 112 51.0066 112V116C51.3791 116 51.7942 115.901 52.1751 115.647C52.5434 115.402 52.7668 115.087 52.8967 114.827C53.1282 114.364 53.1416 113.922 53.1416 113.73H49.1416ZM51.0066 112C50.2121 112 49.6337 111.985 49.2496 111.959L48.9836 115.951C49.4995 115.985 50.1811 116 51.0066 116V112ZM49.1494 111.955L46.4044 111.91L46.3388 115.91L49.0838 115.955L49.1494 111.955ZM46.3371 111.91L43.7271 111.955L43.7961 115.955L46.4061 115.91L46.3371 111.91ZM43.6368 111.959C43.2189 111.985 42.5924 112 41.7366 112V116C42.6208 116 43.3443 115.985 43.8864 115.951L43.6368 111.959ZM41.7366 112C42.2867 112 42.7729 112.23 43.1114 112.569C43.4009 112.858 43.52 113.161 43.5665 113.3C43.618 113.455 43.6343 113.576 43.64 113.627C43.6465 113.686 43.6466 113.723 43.6466 113.73H39.6466C39.6466 113.878 39.6525 114.207 39.7717 114.565C39.8738 114.871 40.3781 116 41.7366 116V112ZM43.6466 113.73C43.6466 113.737 43.6465 113.774 43.64 113.833C43.6343 113.884 43.618 114.005 43.5665 114.16C43.52 114.299 43.4009 114.602 43.1114 114.891C42.7729 115.23 42.2867 115.46 41.7366 115.46V111.46C40.3781 111.46 39.8738 112.589 39.7717 112.895C39.6525 113.253 39.6466 113.582 39.6466 113.73H43.6466ZM41.7366 115.46C42.8186 115.46 43.8411 115.39 44.6282 115.144L43.4351 111.326C43.2621 111.38 42.7546 111.46 41.7366 111.46V115.46ZM44.6282 115.144C45.6028 114.839 46.4248 114.183 46.8599 113.168L43.1833 111.592C43.207 111.537 43.256 111.461 43.3319 111.395C43.4036 111.333 43.4534 111.32 43.4351 111.326L44.6282 115.144ZM46.8786 113.123C47.2025 112.313 47.2916 111.329 47.2916 110.355H43.2916C43.2916 111.181 43.2007 111.547 43.1646 111.637L46.8786 113.123ZM47.2916 110.355V96.585H43.2916V110.355H47.2916ZM47.2916 96.585C47.2916 95.6259 47.2066 94.6261 46.8599 93.8172L43.1833 95.3928C43.1782 95.3809 43.2117 95.4599 43.2424 95.6852C43.2718 95.9008 43.2916 96.1963 43.2916 96.585H47.2916ZM46.8599 93.8172C46.4248 92.8019 45.6028 92.1456 44.6281 91.841L43.4351 95.659C43.4534 95.6647 43.4036 95.6518 43.3319 95.5899C43.256 95.5244 43.207 95.4482 43.1833 95.3928L46.8599 93.8172ZM44.7338 91.8773C43.9024 91.5655 42.8522 91.48 41.7816 91.48V95.48C42.751 95.48 43.2008 95.5745 43.3294 95.6227L44.7338 91.8773ZM41.7816 91.48C42.3317 91.48 42.8179 91.7103 43.1564 92.0489C43.4459 92.3384 43.565 92.6406 43.6115 92.78C43.663 92.9348 43.6793 93.0556 43.685 93.1073C43.6915 93.166 43.6916 93.2033 43.6916 93.21H39.6916C39.6916 93.3584 39.6975 93.6873 39.8167 94.045C39.9188 94.3513 40.4231 95.48 41.7816 95.48V91.48ZM43.6916 93.21C43.6916 93.2167 43.6915 93.254 43.685 93.3127C43.6793 93.3644 43.663 93.4852 43.6115 93.64C43.565 93.7794 43.4459 94.0816 43.1564 94.3711C42.8179 94.7097 42.3317 94.94 41.7816 94.94V90.94C40.4231 90.94 39.9188 92.0688 39.8167 92.375C39.6975 92.7327 39.6916 93.0616 39.6916 93.21H43.6916ZM41.7372 94.9395L43.7622 94.9845L43.851 90.9855L41.826 90.9405L41.7372 94.9395ZM43.6957 94.9819C44.7905 95.0427 45.6876 95.075 46.3716 95.075V91.075C45.7956 91.075 44.9827 91.0473 43.9175 90.9881L43.6957 94.9819ZM46.3716 95.075C46.975 95.075 47.5306 95.0592 48.0346 95.0256L47.7686 91.0344C47.3726 91.0608 46.9082 91.075 46.3716 91.075V95.075ZM48.0346 95.0256C48.497 94.9947 48.8958 94.9631 49.2256 94.9301L48.8276 90.9499C48.5574 90.9769 48.2062 91.0053 47.7686 91.0344L48.0346 95.0256ZM49.2192 94.9307C50.0947 94.846 50.8998 94.805 51.6366 94.805V90.805C50.7534 90.805 49.8185 90.854 48.834 90.9493L49.2192 94.9307ZM51.6366 94.805C53.2343 94.805 54.1198 95.1385 54.5903 95.506L57.0529 92.354C55.6034 91.2215 53.6989 90.805 51.6366 90.805V94.805ZM54.6139 95.5242C55.0325 95.8413 55.3066 96.2895 55.3066 97.17H59.3066C59.3066 95.2305 58.5907 93.5187 57.0293 92.3358L54.6139 95.5242ZM55.3066 97.17C55.3066 98 55.0815 98.7348 54.615 99.4244L57.9282 101.666C58.8417 100.315 59.3066 98.8 59.3066 97.17H55.3066ZM54.5925 99.4585C54.1242 100.182 53.4773 100.787 52.6042 101.27L54.539 104.77C55.9459 103.993 57.099 102.948 57.9507 101.632L54.5925 99.4585ZM51.8715 104.073C53.5955 106.856 55.0631 109.039 56.2662 110.591L59.427 108.139C58.3501 106.751 56.9677 104.704 55.2717 101.967L51.8715 104.073ZM56.2818 110.61C57.5172 112.163 58.7578 113.404 60.0128 114.202L62.1604 110.828C61.4354 110.366 60.516 109.507 59.4114 108.12L56.2818 110.61ZM60.0128 114.202C61.3138 115.03 62.7496 115.46 64.2816 115.46V111.46C63.5336 111.46 62.8394 111.26 62.1604 110.828L60.0128 114.202ZM47.1296 105.022C47.8937 105.183 48.8148 105.245 49.8366 105.245V101.245C48.9384 101.245 48.3295 101.187 47.9536 101.108L47.1296 105.022ZM49.8366 105.245C51.9087 105.245 53.9398 104.819 55.2641 103.389L52.3291 100.671C52.1534 100.861 51.5445 101.245 49.8366 101.245V105.245ZM55.2885 103.362C56.4788 102.029 56.9216 100.265 56.9216 98.385H52.9216C52.9216 99.685 52.6144 100.351 52.3047 100.698L55.2885 103.362ZM56.9216 98.385C56.9216 96.4603 56.4926 94.6433 55.2825 93.3001C54.0367 91.9172 52.2869 91.39 50.4216 91.39V95.39C51.5563 95.39 52.0565 95.6953 52.3107 95.9774C52.6006 96.2992 52.9216 96.9797 52.9216 98.385H56.9216ZM50.4216 91.39C49.1324 91.39 47.4181 91.6268 46.4477 93.0016L49.7155 95.3084C49.5793 95.5013 49.4489 95.5179 49.5581 95.4822C49.6779 95.4431 49.9444 95.39 50.4216 95.39V91.39ZM46.4477 93.0016C45.718 94.0354 45.5416 95.4016 45.5416 96.675H49.5416C49.5416 96.184 49.5801 95.8295 49.6322 95.5866C49.6856 95.3376 49.738 95.2765 49.7155 95.3084L46.4477 93.0016ZM45.5416 96.675V103.065H49.5416V96.675H45.5416ZM82.8016 113.055L81.7587 114.762L81.7656 114.766L81.7726 114.77L82.8016 113.055ZM79.0216 109.095L77.2456 110.015L77.2555 110.034L77.2658 110.053L79.0216 109.095ZM79.5616 97.575L81.1852 98.7429L81.1852 98.7429L79.5616 97.575ZM84.1966 93.705L83.3603 91.8882L83.3492 91.8934L84.1966 93.705ZM95.4916 93.93L94.4117 95.6134L94.4117 95.6134L95.4916 93.93ZM99.1366 97.935L97.3542 98.8424L97.3607 98.8551L97.3674 98.8678L99.1366 97.935ZM98.8216 108.825L100.521 109.88L100.525 109.873L100.529 109.867L98.8216 108.825ZM94.4116 113.01L95.3853 114.757L95.3947 114.752L94.4116 113.01ZM95.5816 111.165L94.1017 109.82L94.0949 109.827L94.0882 109.835L95.5816 111.165ZM96.7516 98.79L94.9132 99.5779L94.9185 99.5899L96.7516 98.79ZM93.5566 94.785L94.7058 93.1482L94.7058 93.1482L93.5566 94.785ZM82.4416 95.775L80.9347 94.4599L80.9279 94.4678L80.9211 94.4757L82.4416 95.775ZM81.4066 108.15L79.5683 108.938L79.5742 108.952L79.5803 108.965L81.4066 108.15ZM84.6466 112.155L85.7958 110.518L85.7958 110.518L84.6466 112.155ZM88.4266 112.54C86.6548 112.54 85.1416 112.127 83.8306 111.34L81.7726 114.77C83.7615 115.963 85.9983 116.54 88.4266 116.54V112.54ZM83.8445 111.348C82.5204 110.539 81.5077 109.476 80.7774 108.137L77.2658 110.053C78.3354 112.014 79.8427 113.591 81.7587 114.762L83.8445 111.348ZM80.7975 108.175C80.0794 106.788 79.7166 105.29 79.7166 103.65H75.7166C75.7166 105.91 76.2238 108.042 77.2456 110.015L80.7975 108.175ZM79.7166 103.65C79.7166 101.68 80.2269 100.075 81.1852 98.7429L77.938 96.4071C76.4363 98.4949 75.7166 100.94 75.7166 103.65H79.7166ZM81.1852 98.7429C82.221 97.3028 83.5017 96.238 85.0439 95.5166L83.3492 91.8934C81.1715 92.912 79.3621 94.4272 77.938 96.4071L81.1852 98.7429ZM85.0328 95.5218C86.6785 94.7643 88.3144 94.4 89.9566 94.4V90.4C87.6988 90.4 85.4946 90.9057 83.3603 91.8882L85.0328 95.5218ZM89.9566 94.4C91.7179 94.4 93.1792 94.8228 94.4117 95.6134L96.5715 92.2466C94.6239 90.9972 92.3952 90.4 89.9566 90.4V94.4ZM94.4117 95.6134C95.7091 96.4457 96.6787 97.5155 97.3542 98.8424L100.919 97.0276C99.9144 95.0545 98.454 93.4543 96.5715 92.2466L94.4117 95.6134ZM97.3674 98.8678C98.0915 100.241 98.4416 101.647 98.4416 103.11H102.442C102.442 100.973 101.922 98.9289 100.906 97.0022L97.3674 98.8678ZM98.4416 103.11C98.4416 104.776 98.0062 106.322 97.1143 107.783L100.529 109.867C101.797 107.788 102.442 105.524 102.442 103.11H98.4416ZM97.1223 107.77C96.2272 109.212 95.0088 110.376 93.4284 111.268L95.3947 114.752C97.5343 113.544 99.2559 111.918 100.521 109.88L97.1223 107.77ZM93.4378 111.263C91.915 112.112 90.2567 112.54 88.4266 112.54V116.54C90.9164 116.54 93.2481 115.948 95.3853 114.757L93.4378 111.263ZM89.6416 115.64C92.6216 115.64 95.175 114.628 97.0749 112.495L94.0882 109.835C93.0481 111.002 91.6415 111.64 89.6416 111.64V115.64ZM97.0614 112.51C98.9911 110.388 99.8316 107.556 99.8316 104.28H95.8316C95.8316 106.884 95.172 108.642 94.1017 109.82L97.0614 112.51ZM99.8316 104.28C99.8316 102.027 99.4269 99.9203 98.5846 97.9901L94.9185 99.5899C95.5162 100.96 95.8316 102.513 95.8316 104.28H99.8316ZM98.5898 98.0022C97.7328 96.0024 96.4387 94.3649 94.7058 93.1482L92.4073 96.4218C93.4944 97.1851 94.3303 98.2176 94.9133 99.5778L98.5898 98.0022ZM94.7058 93.1482C92.9107 91.8878 90.7994 91.3 88.4716 91.3V95.3C90.1037 95.3 91.3824 95.7022 92.4073 96.4218L94.7058 93.1482ZM88.4716 91.3C85.4272 91.3 82.8231 92.2961 80.9347 94.4599L83.9484 97.0901C84.94 95.9539 86.356 95.3 88.4716 95.3V91.3ZM80.9211 94.4757C79.1127 96.5919 78.3266 99.3711 78.3266 102.57H82.3266C82.3266 100.009 82.9504 98.2581 83.962 97.0743L80.9211 94.4757ZM78.3266 102.57C78.3266 104.849 78.7298 106.981 79.5683 108.938L83.2448 107.362C82.6433 105.959 82.3266 104.371 82.3266 102.57H78.3266ZM79.5803 108.965C80.4672 110.952 81.7714 112.58 83.4973 113.792L85.7958 110.518C84.7018 109.75 83.8459 108.708 83.2328 107.335L79.5803 108.965ZM83.4973 113.792C85.282 115.045 87.3594 115.64 89.6416 115.64V111.64C88.0838 111.64 86.8311 111.245 85.7958 110.518L83.4973 113.792ZM122.361 112.155L120.464 112.787L120.49 112.866L120.523 112.943L122.361 112.155ZM123.351 113.055L122.649 114.928L122.649 114.928L123.351 113.055ZM134.286 107.925L136.266 108.206L136.286 108.066V107.925H134.286ZM134.691 107.88L133.797 109.669L133.924 109.732L134.059 109.777L134.691 107.88ZM134.826 108.015L136.8 108.336L136.826 108.177V108.015H134.826ZM134.331 113.865L132.917 112.451L132.917 112.451L134.331 113.865ZM119.526 112.38L117.669 111.637L117.655 111.672L117.643 111.707L119.526 112.38ZM119.526 94.605L117.643 95.2777L117.663 95.336L117.688 95.3928L119.526 94.605ZM118.581 93.75L117.879 95.6227L117.931 95.6423L117.985 95.659L118.581 93.75ZM116.331 92.94L116.377 90.9405L116.354 90.94H116.331V92.94ZM118.311 92.985L118.422 90.9881L118.389 90.9863L118.357 90.9855L118.311 92.985ZM123.666 92.985L123.619 90.9856L123.587 90.9863L123.555 90.9881L123.666 92.985ZM125.556 92.94V90.94H125.532L125.509 90.9406L125.556 92.94ZM123.306 93.75L123.939 95.6474L123.974 95.6357L124.008 95.6227L123.306 93.75ZM122.361 94.65L120.504 93.9072L120.49 93.942L120.478 93.9773L122.361 94.65ZM120.136 110.175C120.136 111.112 120.211 112.029 120.464 112.787L124.258 111.523C124.211 111.381 124.136 110.978 124.136 110.175H120.136ZM120.523 112.943C120.945 113.928 121.727 114.582 122.649 114.928L124.053 111.182C124.016 111.168 124.041 111.171 124.089 111.215C124.112 111.236 124.136 111.262 124.156 111.291C124.177 111.321 124.191 111.347 124.199 111.367L120.523 112.943ZM122.649 114.928C123.472 115.236 124.483 115.325 125.511 115.325V111.325C124.619 111.325 124.19 111.234 124.053 111.182L122.649 114.928ZM125.511 115.325H129.111V111.325H125.511V115.325ZM129.111 115.325C131.02 115.325 132.747 114.723 134.054 113.359C135.312 112.046 135.978 110.239 136.266 108.206L132.306 107.644C132.084 109.211 131.633 110.104 131.166 110.591C130.748 111.027 130.142 111.325 129.111 111.325V115.325ZM136.286 107.925C136.286 108.26 136.197 108.642 135.961 108.995C135.735 109.335 135.448 109.535 135.226 109.646C134.838 109.84 134.508 109.835 134.466 109.835V105.835C134.304 105.835 133.885 105.845 133.437 106.069C133.184 106.195 132.875 106.414 132.633 106.776C132.383 107.151 132.286 107.56 132.286 107.925H136.286ZM134.466 109.835C134.347 109.835 134.093 109.817 133.797 109.669L135.586 106.091C135.17 105.883 134.765 105.835 134.466 105.835V109.835ZM134.059 109.777C133.942 109.738 133.656 109.629 133.378 109.35C133.051 109.023 132.826 108.55 132.826 108.015H136.826C136.826 106.626 135.675 106.1 135.324 105.983L134.059 109.777ZM132.852 107.694C132.617 109.139 132.511 111.032 132.511 113.325H136.511C136.511 111.118 136.615 109.471 136.8 108.336L132.852 107.694ZM132.511 113.325C132.511 113.257 132.53 112.838 132.917 112.451L135.745 115.279C136.373 114.652 136.511 113.873 136.511 113.325H132.511ZM132.917 112.451C133.188 112.179 133.472 112.075 133.614 112.037C133.689 112.016 133.748 112.008 133.781 112.004C133.815 112 133.835 112 133.836 112V116C134.187 116 135.062 115.962 135.745 115.279L132.917 112.451ZM133.836 112H116.331V116H133.836V112ZM116.331 112C116.881 112 117.367 112.23 117.706 112.569C117.995 112.858 118.115 113.161 118.161 113.3C118.213 113.455 118.229 113.576 118.235 113.627C118.241 113.686 118.241 113.723 118.241 113.73H114.241C114.241 113.878 114.247 114.207 114.366 114.565C114.468 114.871 114.973 116 116.331 116V112ZM118.241 113.73C118.241 113.737 118.241 113.774 118.235 113.833C118.229 113.884 118.213 114.005 118.161 114.16C118.115 114.299 117.995 114.602 117.706 114.891C117.367 115.23 116.881 115.46 116.331 115.46V111.46C114.973 111.46 114.468 112.589 114.366 112.895C114.247 113.253 114.241 113.582 114.241 113.73H118.241ZM116.331 115.46C117.39 115.46 118.394 115.389 119.178 115.144L117.985 111.326C117.808 111.381 117.312 111.46 116.331 111.46V115.46ZM119.178 115.144C120.169 114.834 121.019 114.145 121.41 113.053L117.643 111.707C117.673 111.623 117.736 111.516 117.836 111.426C117.929 111.341 117.998 111.322 117.985 111.326L119.178 115.144ZM121.383 113.123C121.707 112.313 121.796 111.329 121.796 110.355H117.796C117.796 111.181 117.705 111.547 117.669 111.637L121.383 113.123ZM121.796 110.355V96.585H117.796V110.355H121.796ZM121.796 96.585C121.796 95.6259 121.711 94.6261 121.364 93.8172L117.688 95.3928C117.683 95.3809 117.716 95.4599 117.747 95.6852C117.776 95.9008 117.796 96.1963 117.796 96.585H121.796ZM121.41 93.9323C121.019 92.8397 120.169 92.1509 119.178 91.841L117.985 95.659C117.998 95.6633 117.929 95.6435 117.836 95.5593C117.736 95.4694 117.673 95.3623 117.643 95.2777L121.41 93.9323ZM119.283 91.8773C118.452 91.5655 117.402 91.48 116.331 91.48V95.48C117.301 95.48 117.75 95.5745 117.879 95.6227L119.283 91.8773ZM116.331 91.48C116.881 91.48 117.367 91.7103 117.706 92.0489C117.995 92.3384 118.115 92.6406 118.161 92.78C118.213 92.9348 118.229 93.0556 118.235 93.1073C118.241 93.166 118.241 93.2033 118.241 93.21H114.241C114.241 93.3584 114.247 93.6873 114.366 94.045C114.468 94.3513 114.973 95.48 116.331 95.48V91.48ZM118.241 93.21C118.241 93.2167 118.241 93.254 118.235 93.3127C118.229 93.3644 118.213 93.4852 118.161 93.64C118.115 93.7794 117.995 94.0816 117.706 94.3711C117.367 94.7097 116.881 94.94 116.331 94.94V90.94C114.973 90.94 114.468 92.0688 114.366 92.375C114.247 92.7327 114.241 93.0616 114.241 93.21H118.241ZM116.286 94.9395L118.266 94.9845L118.357 90.9855L116.377 90.9405L116.286 94.9395ZM118.2 94.9819C119.297 95.0429 120.208 95.075 120.921 95.075V91.075C120.314 91.075 119.485 91.0471 118.422 90.9881L118.2 94.9819ZM120.921 95.075C121.72 95.075 122.675 95.0432 123.777 94.9819L123.555 90.9881C122.498 91.0468 121.622 91.075 120.921 91.075V95.075ZM123.714 94.9844L125.604 94.9394L125.509 90.9406L123.619 90.9856L123.714 94.9844ZM125.556 94.94C125.006 94.94 124.52 94.7097 124.181 94.3711C123.892 94.0816 123.773 93.7794 123.726 93.64C123.675 93.4852 123.658 93.3644 123.653 93.3127C123.646 93.254 123.646 93.2167 123.646 93.21H127.646C127.646 93.0616 127.64 92.7327 127.521 92.375C127.419 92.0687 126.915 90.94 125.556 90.94V94.94ZM123.646 93.21C123.646 93.2033 123.646 93.166 123.653 93.1073C123.658 93.0556 123.675 92.9348 123.726 92.78C123.773 92.6406 123.892 92.3384 124.181 92.0489C124.52 91.7103 125.006 91.48 125.556 91.48V95.48C126.915 95.48 127.419 94.3513 127.521 94.045C127.64 93.6873 127.646 93.3584 127.646 93.21H123.646ZM125.556 91.48C124.486 91.48 123.435 91.5655 122.604 91.8773L124.008 95.6227C124.137 95.5745 124.587 95.48 125.556 95.48V91.48ZM122.674 91.8526C121.652 92.1933 120.897 92.9247 120.504 93.9072L124.218 95.3928C124.214 95.4039 124.185 95.4661 124.112 95.5358C124.038 95.6064 123.967 95.6379 123.939 95.6474L122.674 91.8526ZM120.478 93.9773C120.206 94.7368 120.136 95.6852 120.136 96.63H124.136C124.136 96.2309 124.153 95.9199 124.18 95.6858C124.193 95.5701 124.207 95.482 124.221 95.4179C124.227 95.3863 124.233 95.3627 124.238 95.3463C124.242 95.3297 124.245 95.3223 124.245 95.3227L120.478 93.9773ZM120.136 96.63V110.175H124.136V96.63H120.136ZM155.747 112.155L153.85 112.787L153.876 112.866L153.909 112.943L155.747 112.155ZM156.737 113.055L156.035 114.928L156.035 114.928L156.737 113.055ZM167.672 107.925L169.652 108.206L169.672 108.066V107.925H167.672ZM168.077 107.88L167.183 109.669L167.31 109.732L167.445 109.777L168.077 107.88ZM168.212 108.015L170.186 108.336L170.212 108.177V108.015H168.212ZM167.717 113.865L166.303 112.451L166.303 112.451L167.717 113.865ZM152.912 112.38L151.055 111.637L151.041 111.672L151.029 111.707L152.912 112.38ZM152.912 94.605L151.029 95.2777L151.05 95.336L151.074 95.3928L152.912 94.605ZM151.967 93.75L151.265 95.6227L151.317 95.6423L151.371 95.659L151.967 93.75ZM149.717 92.94L149.763 90.9405L149.74 90.94H149.717V92.94ZM151.697 92.985L151.808 90.9881L151.775 90.9863L151.743 90.9855L151.697 92.985ZM157.052 92.985L157.005 90.9856L156.973 90.9863L156.941 90.9881L157.052 92.985ZM158.942 92.94V90.94H158.918L158.895 90.9406L158.942 92.94ZM156.692 93.75L157.325 95.6474L157.36 95.6357L157.395 95.6227L156.692 93.75ZM155.747 94.65L153.89 93.9072L153.876 93.942L153.864 93.9773L155.747 94.65ZM153.522 110.175C153.522 111.112 153.597 112.029 153.85 112.787L157.645 111.523C157.597 111.381 157.522 110.978 157.522 110.175H153.522ZM153.909 112.943C154.331 113.928 155.113 114.582 156.035 114.928L157.44 111.182C157.402 111.168 157.427 111.171 157.475 111.215C157.498 111.236 157.522 111.262 157.542 111.291C157.563 111.321 157.577 111.347 157.586 111.367L153.909 112.943ZM156.035 114.928C156.858 115.236 157.869 115.325 158.897 115.325V111.325C158.005 111.325 157.577 111.234 157.44 111.182L156.035 114.928ZM158.897 115.325H162.497V111.325H158.897V115.325ZM162.497 115.325C164.407 115.325 166.133 114.723 167.44 113.359C168.698 112.046 169.364 110.239 169.652 108.206L165.692 107.644C165.47 109.211 165.019 110.104 164.552 110.591C164.134 111.027 163.528 111.325 162.497 111.325V115.325ZM169.672 107.925C169.672 108.26 169.583 108.642 169.348 108.995C169.121 109.335 168.834 109.535 168.612 109.646C168.224 109.84 167.894 109.835 167.852 109.835V105.835C167.69 105.835 167.271 105.845 166.823 106.069C166.571 106.195 166.261 106.414 166.019 106.776C165.769 107.151 165.672 107.56 165.672 107.925H169.672ZM167.852 109.835C167.733 109.835 167.479 109.817 167.183 109.669L168.972 106.091C168.556 105.883 168.152 105.835 167.852 105.835V109.835ZM167.445 109.777C167.328 109.738 167.042 109.629 166.764 109.35C166.437 109.023 166.212 108.55 166.212 108.015H170.212C170.212 106.626 169.061 106.1 168.71 105.983L167.445 109.777ZM166.238 107.694C166.003 109.139 165.897 111.032 165.897 113.325H169.897C169.897 111.118 170.002 109.471 170.186 108.336L166.238 107.694ZM165.897 113.325C165.897 113.257 165.916 112.838 166.303 112.451L169.131 115.279C169.759 114.652 169.897 113.873 169.897 113.325H165.897ZM166.303 112.451C166.575 112.179 166.858 112.075 167 112.037C167.075 112.016 167.134 112.008 167.167 112.004C167.202 112 167.221 112 167.222 112V116C167.573 116 168.448 115.962 169.131 115.279L166.303 112.451ZM167.222 112H149.717V116H167.222V112ZM149.717 112C150.267 112 150.754 112.23 151.092 112.569C151.382 112.858 151.501 113.161 151.547 113.3C151.599 113.455 151.615 113.576 151.621 113.627C151.627 113.686 151.627 113.723 151.627 113.73H147.627C147.627 113.878 147.633 114.207 147.752 114.565C147.854 114.871 148.359 116 149.717 116V112ZM151.627 113.73C151.627 113.737 151.627 113.774 151.621 113.833C151.615 113.884 151.599 114.005 151.547 114.16C151.501 114.299 151.382 114.602 151.092 114.891C150.754 115.23 150.267 115.46 149.717 115.46V111.46C148.359 111.46 147.854 112.589 147.752 112.895C147.633 113.253 147.627 113.582 147.627 113.73H151.627ZM149.717 115.46C150.776 115.46 151.78 115.389 152.564 115.144L151.371 111.326C151.194 111.381 150.698 111.46 149.717 111.46V115.46ZM152.564 115.144C153.556 114.834 154.406 114.145 154.796 113.053L151.029 111.707C151.059 111.623 151.122 111.516 151.222 111.426C151.315 111.341 151.385 111.322 151.371 111.326L152.564 115.144ZM154.769 113.123C155.093 112.313 155.182 111.329 155.182 110.355H151.182C151.182 111.181 151.091 111.547 151.055 111.637L154.769 113.123ZM155.182 110.355V96.585H151.182V110.355H155.182ZM155.182 96.585C155.182 95.6259 155.097 94.6261 154.751 93.8172L151.074 95.3928C151.069 95.3809 151.102 95.4599 151.133 95.6852C151.163 95.9008 151.182 96.1963 151.182 96.585H155.182ZM154.796 93.9323C154.406 92.8397 153.556 92.1509 152.564 91.841L151.371 95.659C151.385 95.6633 151.315 95.6435 151.222 95.5593C151.122 95.4694 151.059 95.3623 151.029 95.2777L154.796 93.9323ZM152.67 91.8773C151.838 91.5655 150.788 91.48 149.717 91.48V95.48C150.687 95.48 151.136 95.5745 151.265 95.6227L152.67 91.8773ZM149.717 91.48C150.267 91.48 150.754 91.7103 151.092 92.0489C151.382 92.3384 151.501 92.6406 151.547 92.78C151.599 92.9348 151.615 93.0556 151.621 93.1073C151.627 93.166 151.627 93.2033 151.627 93.21H147.627C147.627 93.3584 147.633 93.6873 147.752 94.045C147.854 94.3513 148.359 95.48 149.717 95.48V91.48ZM151.627 93.21C151.627 93.2167 151.627 93.254 151.621 93.3127C151.615 93.3644 151.599 93.4852 151.547 93.64C151.501 93.7794 151.382 94.0816 151.092 94.3711C150.754 94.7097 150.267 94.94 149.717 94.94V90.94C148.359 90.94 147.854 92.0688 147.752 92.375C147.633 92.7327 147.627 93.0616 147.627 93.21H151.627ZM149.672 94.9395L151.652 94.9845L151.743 90.9855L149.763 90.9405L149.672 94.9395ZM151.586 94.9819C152.683 95.0429 153.595 95.075 154.307 95.075V91.075C153.7 91.075 152.871 91.0471 151.808 90.9881L151.586 94.9819ZM154.307 95.075C155.106 95.075 156.061 95.0432 157.163 94.9819L156.941 90.9881C155.884 91.0468 155.008 91.075 154.307 91.075V95.075ZM157.1 94.9844L158.99 94.9394L158.895 90.9406L157.005 90.9856L157.1 94.9844ZM158.942 94.94C158.392 94.94 157.906 94.7097 157.567 94.3711C157.278 94.0816 157.159 93.7794 157.112 93.64C157.061 93.4852 157.045 93.3644 157.039 93.3127C157.032 93.254 157.032 93.2167 157.032 93.21H161.032C161.032 93.0616 161.026 92.7327 160.907 92.375C160.805 92.0687 160.301 90.94 158.942 90.94V94.94ZM157.032 93.21C157.032 93.2033 157.032 93.166 157.039 93.1073C157.045 93.0556 157.061 92.9348 157.112 92.78C157.159 92.6406 157.278 92.3384 157.567 92.0489C157.906 91.7103 158.392 91.48 158.942 91.48V95.48C160.301 95.48 160.805 94.3513 160.907 94.045C161.026 93.6873 161.032 93.3584 161.032 93.21H157.032ZM158.942 91.48C157.872 91.48 156.821 91.5655 155.99 91.8773L157.395 95.6227C157.523 95.5745 157.973 95.48 158.942 95.48V91.48ZM156.06 91.8526C155.038 92.1933 154.283 92.9247 153.89 93.9072L157.604 95.3928C157.6 95.4039 157.571 95.4661 157.498 95.5358C157.424 95.6064 157.353 95.6379 157.325 95.6474L156.06 91.8526ZM153.864 93.9773C153.593 94.7368 153.522 95.6852 153.522 96.63H157.522C157.522 96.2309 157.539 95.9199 157.566 95.6858C157.579 95.5701 157.593 95.482 157.607 95.4179C157.613 95.3863 157.619 95.3627 157.624 95.3463C157.628 95.3297 157.631 95.3223 157.631 95.3227L153.864 93.9773ZM153.522 96.63V110.175H157.522V96.63H153.522Z" fill="#B22222"/>
<defs>
<filter id="filter0_d" x="0" y="0" width="208" height="208" filterUnits="userSpaceOnUse" color-interpolation-filters="sRGB">
<feFlood flood-opacity="0" result="BackgroundImageFix"/>
<feColorMatrix in="SourceAlpha" type="matrix" values="0 0 0 0 0 0 0 0 0 0 0 0 0 0 0 0 0 0 127 0"/>
<feOffset dy="4"/>
<feGaussianBlur stdDeviation="2"/>
<feColorMatrix type="matrix" values="0 0 0 0 0 0 0 0 0 0 0 0 0 0 0 0 0 0 0.25 0"/>
<feBlend mode="normal" in2="BackgroundImageFix" result="effect1_dropShadow"/>
<feBlend mode="normal" in="SourceGraphic" in2="effect1_dropShadow" result="shape"/>
</filter>
</defs>
</svg>
