<svg width="208" height="208" viewBox="0 0 208 208" fill="none" xmlns="http://www.w3.org/2000/svg">
<g filter="url(#filter0_d)">
<path d="M33.2466 25.822L108.372 0L177.141 25.822L204 101.444L177.141 173.376L108.372 200L33.2466 173.376L4 101.444L33.2466 25.822Z" fill="#C4C4C4" fill-opacity="0.15"/>
<path d="M6.15149 101.425L34.7764 27.411L108.342 2.12512L175.568 27.3675L201.872 101.427L175.582 171.835L108.341 197.867L34.7611 171.791L6.15149 101.425Z" stroke="black" stroke-width="4"/>
</g>
<path d="M66.5943 114.4C66.6943 114.4 66.7443 114.5 66.7443 114.7C66.7443 114.9 66.6943 115 66.5943 115H59.1943C58.661 115 57.6943 114 56.2943 112C54.9277 109.967 53.3277 107.217 51.4943 103.75C50.7943 103.85 50.0777 103.9 49.3443 103.9C48.811 103.9 48.411 103.883 48.1443 103.85V110.95C48.1443 111.95 48.211 112.7 48.3443 113.2C48.511 113.667 48.811 113.983 49.2443 114.15C49.711 114.317 50.4443 114.4 51.4443 114.4C51.511 114.4 51.5443 114.5 51.5443 114.7C51.5443 114.9 51.511 115 51.4443 115C50.4777 115 49.711 114.983 49.1443 114.95L45.8443 114.9L42.7443 114.95C42.1443 114.983 41.3277 115 40.2943 115C40.2277 115 40.1943 114.9 40.1943 114.7C40.1943 114.5 40.2277 114.4 40.2943 114.4C41.2943 114.4 42.0277 114.317 42.4943 114.15C42.961 113.983 43.2777 113.667 43.4443 113.2C43.611 112.7 43.6943 111.95 43.6943 110.95V95.65C43.6943 94.65 43.611 93.9167 43.4443 93.45C43.2777 92.9833 42.961 92.6667 42.4943 92.5C42.0277 92.3 41.311 92.2 40.3443 92.2C40.2777 92.2 40.2443 92.1 40.2443 91.9C40.2443 91.7 40.2777 91.6 40.3443 91.6L42.7943 91.65C44.061 91.7167 45.0777 91.75 45.8443 91.75C46.4777 91.75 47.061 91.7333 47.5943 91.7C48.1277 91.6667 48.5943 91.6333 48.9943 91.6C50.0943 91.5 51.0943 91.45 51.9943 91.45C54.461 91.45 56.3277 91.8667 57.5943 92.7C58.8943 93.5333 59.5443 94.7333 59.5443 96.3C59.5443 97.6 59.1443 98.8167 58.3443 99.95C57.5443 101.083 56.4443 101.983 55.0443 102.65C56.8443 105.683 58.3943 108.05 59.6943 109.75C60.9943 111.417 62.1777 112.617 63.2443 113.35C64.311 114.05 65.4277 114.4 66.5943 114.4ZM48.1443 102.95C48.4443 102.983 48.961 103 49.6943 103C51.661 103 53.0277 102.55 53.7943 101.65C54.561 100.75 54.9443 99.4167 54.9443 97.65C54.9443 94.1167 53.561 92.35 50.7943 92.35C49.6943 92.35 48.9777 92.5833 48.6443 93.05C48.311 93.4833 48.1443 94.3833 48.1443 95.75V102.95ZM88.958 115.6C86.5913 115.6 84.4747 115.05 82.608 113.95C80.7747 112.817 79.3413 111.317 78.308 109.45C77.308 107.583 76.808 105.55 76.808 103.35C76.808 100.783 77.458 98.5667 78.758 96.7C80.0913 94.8333 81.7913 93.4167 83.858 92.45C85.9247 91.4833 88.0413 91 90.208 91C92.5747 91 94.658 91.5833 96.458 92.75C98.258 93.8833 99.6413 95.3667 100.608 97.2C101.608 99.0333 102.108 100.967 102.108 103C102.108 105.233 101.525 107.317 100.358 109.25C99.1913 111.183 97.5913 112.733 95.558 113.9C93.558 115.033 91.358 115.6 88.958 115.6ZM90.158 114.5C92.258 114.5 93.9413 113.583 95.208 111.75C96.508 109.917 97.158 107.383 97.158 104.15C97.158 101.95 96.808 99.95 96.108 98.15C95.408 96.3167 94.408 94.8667 93.108 93.8C91.808 92.7333 90.2747 92.2 88.508 92.2C86.3413 92.2 84.6747 93.0333 83.508 94.7C82.3413 96.3667 81.758 98.7667 81.758 101.9C81.758 104.267 82.108 106.417 82.808 108.35C83.5413 110.25 84.5413 111.75 85.808 112.85C87.0747 113.95 88.5247 114.5 90.158 114.5ZM122.874 110.75C122.874 111.65 122.957 112.333 123.124 112.8C123.324 113.267 123.657 113.6 124.124 113.8C124.624 113.967 125.357 114.05 126.324 114.05H127.824C129.657 114.05 131.274 113.45 132.674 112.25C134.074 111.05 135.074 109.433 135.674 107.4C135.707 107.333 135.807 107.317 135.974 107.35C136.174 107.35 136.274 107.383 136.274 107.45C136.04 109.183 135.924 111.45 135.924 114.25C135.924 114.517 135.857 114.717 135.724 114.85C135.624 114.95 135.44 115 135.174 115H115.324C115.257 115 115.224 114.9 115.224 114.7C115.224 114.5 115.257 114.4 115.324 114.4C116.257 114.4 116.94 114.317 117.374 114.15C117.807 113.983 118.09 113.667 118.224 113.2C118.39 112.7 118.474 111.95 118.474 110.95V95.65C118.474 94.65 118.39 93.9167 118.224 93.45C118.09 92.9833 117.807 92.6667 117.374 92.5C116.94 92.3 116.257 92.2 115.324 92.2C115.257 92.2 115.224 92.1 115.224 91.9C115.224 91.7 115.257 91.6 115.324 91.6L117.724 91.65C119.057 91.7167 120.09 91.75 120.824 91.75C121.69 91.75 122.79 91.7167 124.124 91.65L126.374 91.6C126.474 91.6 126.524 91.7 126.524 91.9C126.524 92.1 126.474 92.2 126.374 92.2C125.34 92.2 124.574 92.3 124.074 92.5C123.607 92.6667 123.29 93 123.124 93.5C122.957 93.9667 122.874 94.7 122.874 95.7V110.75ZM156.165 110.75C156.165 111.65 156.248 112.333 156.415 112.8C156.615 113.267 156.948 113.6 157.415 113.8C157.915 113.967 158.648 114.05 159.615 114.05H161.115C162.948 114.05 164.565 113.45 165.965 112.25C167.365 111.05 168.365 109.433 168.965 107.4C168.998 107.333 169.098 107.317 169.265 107.35C169.465 107.35 169.565 107.383 169.565 107.45C169.331 109.183 169.215 111.45 169.215 114.25C169.215 114.517 169.148 114.717 169.015 114.85C168.915 114.95 168.731 115 168.465 115H148.615C148.548 115 148.515 114.9 148.515 114.7C148.515 114.5 148.548 114.4 148.615 114.4C149.548 114.4 150.231 114.317 150.665 114.15C151.098 113.983 151.381 113.667 151.515 113.2C151.681 112.7 151.765 111.95 151.765 110.95V95.65C151.765 94.65 151.681 93.9167 151.515 93.45C151.381 92.9833 151.098 92.6667 150.665 92.5C150.231 92.3 149.548 92.2 148.615 92.2C148.548 92.2 148.515 92.1 148.515 91.9C148.515 91.7 148.548 91.6 148.615 91.6L151.015 91.65C152.348 91.7167 153.381 91.75 154.115 91.75C154.981 91.75 156.081 91.7167 157.415 91.65L159.665 91.6C159.765 91.6 159.815 91.7 159.815 91.9C159.815 92.1 159.765 92.2 159.665 92.2C158.631 92.2 157.865 92.3 157.365 92.5C156.898 92.6667 156.581 93 156.415 93.5C156.248 93.9667 156.165 94.7 156.165 95.7V110.75Z" fill="#F8F8F7"/>
<defs>
<filter id="filter0_d" x="0" y="0" width="208" height="208" filterUnits="userSpaceOnUse" color-interpolation-filters="sRGB">
<feFlood flood-opacity="0" result="BackgroundImageFix"/>
<feColorMatrix in="SourceAlpha" type="matrix" values="0 0 0 0 0 0 0 0 0 0 0 0 0 0 0 0 0 0 127 0"/>
<feOffset dy="4"/>
<feGaussianBlur stdDeviation="2"/>
<feColorMatrix type="matrix" values="0 0 0 0 0 0 0 0 0 0 0 0 0 0 0 0 0 0 0.25 0"/>
<feBlend mode="normal" in2="BackgroundImageFix" result="effect1_dropShadow"/>
<feBlend mode="normal" in="SourceGraphic" in2="effect1_dropShadow" result="shape"/>
</filter>
</defs>
</svg>
