<svg width="120" height="117" viewBox="0 0 120 117" fill="none" xmlns="http://www.w3.org/2000/svg">
<path d="M0.540098 59.0862L17.9265 15.4421L62.6157 0.529532L103.495 15.4315L119.466 59.0865L103.499 100.603L62.6156 115.969L17.9226 100.592L0.540098 59.0862Z" fill="#C4C4C4" fill-opacity="0.3" stroke="#B22222"/>
<path d="M36.2216 55.352L35.4776 56.096L33.9416 54.56H31.9016L30.2216 56.24V67.04H32.1416V68H26.9336L24.7016 65.768V54.56H22.7816V53.6H27.9896L29.6936 55.28L31.3736 53.6H34.4696L36.2216 55.352ZM58.3994 56.072V65.528L55.9274 68H47.0954L44.6234 65.528V56.072L47.0954 53.6H55.9274L58.3994 56.072ZM50.3834 54.56V67.04H52.6394V54.56H50.3834ZM75.6753 67.04V68H70.7073L68.4753 65.768V47.84H66.7953V46.88H71.7633L73.9953 49.112V67.04H75.6753ZM92.2269 67.04V68H87.2589L85.0269 65.768V47.84H83.3469V46.88H88.3149L90.5469 49.112V67.04H92.2269Z" fill="#F8F8FF" fill-opacity="0.85"/>
<path d="M36.2216 55.352L36.9287 56.0591L37.6358 55.352L36.9287 54.6449L36.2216 55.352ZM35.4776 56.096L34.7705 56.8031L35.4776 57.5102L36.1847 56.8031L35.4776 56.096ZM33.9416 54.56L34.6487 53.8529L34.3558 53.56H33.9416V54.56ZM31.9016 54.56V53.56H31.4873L31.1945 53.8529L31.9016 54.56ZM30.2216 56.24L29.5145 55.5329L29.2216 55.8258V56.24H30.2216ZM30.2216 67.04H29.2216V68.04H30.2216V67.04ZM32.1416 67.04H33.1416V66.04H32.1416V67.04ZM32.1416 68V69H33.1416V68H32.1416ZM26.9336 68L26.2265 68.7071L26.5193 69H26.9336V68ZM24.7016 65.768H23.7016V66.1822L23.9945 66.4751L24.7016 65.768ZM24.7016 54.56H25.7016V53.56H24.7016V54.56ZM22.7816 54.56H21.7816V55.56H22.7816V54.56ZM22.7816 53.6V52.6H21.7816V53.6H22.7816ZM27.9896 53.6L28.6916 52.8879L28.3996 52.6H27.9896V53.6ZM29.6936 55.28L28.9915 55.9921L29.6986 56.6892L30.4007 55.9871L29.6936 55.28ZM31.3736 53.6V52.6H30.9594L30.6665 52.8929L31.3736 53.6ZM34.4696 53.6L35.1767 52.8929L34.8838 52.6H34.4696V53.6ZM35.5145 54.6449L34.7705 55.3889L36.1847 56.8031L36.9287 56.0591L35.5145 54.6449ZM36.1847 55.3889L34.6487 53.8529L33.2345 55.2671L34.7705 56.8031L36.1847 55.3889ZM33.9416 53.56H31.9016V55.56H33.9416V53.56ZM31.1945 53.8529L29.5145 55.5329L30.9287 56.9471L32.6087 55.2671L31.1945 53.8529ZM29.2216 56.24V67.04H31.2216V56.24H29.2216ZM30.2216 68.04H32.1416V66.04H30.2216V68.04ZM31.1416 67.04V68H33.1416V67.04H31.1416ZM32.1416 67H26.9336V69H32.1416V67ZM27.6407 67.2929L25.4087 65.0609L23.9945 66.4751L26.2265 68.7071L27.6407 67.2929ZM25.7016 65.768V54.56H23.7016V65.768H25.7016ZM24.7016 53.56H22.7816V55.56H24.7016V53.56ZM23.7816 54.56V53.6H21.7816V54.56H23.7816ZM22.7816 54.6H27.9896V52.6H22.7816V54.6ZM27.2875 54.3121L28.9915 55.9921L30.3956 54.5679L28.6916 52.8879L27.2875 54.3121ZM30.4007 55.9871L32.0807 54.3071L30.6665 52.8929L28.9865 54.5729L30.4007 55.9871ZM31.3736 54.6H34.4696V52.6H31.3736V54.6ZM33.7625 54.3071L35.5145 56.0591L36.9287 54.6449L35.1767 52.8929L33.7625 54.3071ZM58.3994 56.072H59.3994V55.6578L59.1065 55.3649L58.3994 56.072ZM58.3994 65.528L59.1065 66.2351L59.3994 65.9422V65.528H58.3994ZM55.9274 68V69H56.3417L56.6345 68.7071L55.9274 68ZM47.0954 68L46.3883 68.7071L46.6812 69H47.0954V68ZM44.6234 65.528H43.6234V65.9422L43.9163 66.2351L44.6234 65.528ZM44.6234 56.072L43.9163 55.3649L43.6234 55.6578V56.072H44.6234ZM47.0954 53.6V52.6H46.6812L46.3883 52.8929L47.0954 53.6ZM55.9274 53.6L56.6345 52.8929L56.3417 52.6H55.9274V53.6ZM50.3834 54.56V53.56H49.3834V54.56H50.3834ZM50.3834 67.04H49.3834V68.04H50.3834V67.04ZM52.6394 67.04V68.04H53.6394V67.04H52.6394ZM52.6394 54.56H53.6394V53.56H52.6394V54.56ZM57.3994 56.072V65.528H59.3994V56.072H57.3994ZM57.6923 64.8209L55.2203 67.2929L56.6345 68.7071L59.1065 66.2351L57.6923 64.8209ZM55.9274 67H47.0954V69H55.9274V67ZM47.8025 67.2929L45.3305 64.8209L43.9163 66.2351L46.3883 68.7071L47.8025 67.2929ZM45.6234 65.528V56.072H43.6234V65.528H45.6234ZM45.3305 56.7791L47.8025 54.3071L46.3883 52.8929L43.9163 55.3649L45.3305 56.7791ZM47.0954 54.6H55.9274V52.6H47.0954V54.6ZM55.2203 54.3071L57.6923 56.7791L59.1065 55.3649L56.6345 52.8929L55.2203 54.3071ZM49.3834 54.56V67.04H51.3834V54.56H49.3834ZM50.3834 68.04H52.6394V66.04H50.3834V68.04ZM53.6394 67.04V54.56H51.6394V67.04H53.6394ZM52.6394 53.56H50.3834V55.56H52.6394V53.56ZM75.6753 67.04H76.6753V66.04H75.6753V67.04ZM75.6753 68V69H76.6753V68H75.6753ZM70.7073 68L70.0002 68.7071L70.2931 69H70.7073V68ZM68.4753 65.768H67.4753V66.1822L67.7682 66.4751L68.4753 65.768ZM68.4753 47.84H69.4753V46.84H68.4753V47.84ZM66.7953 47.84H65.7953V48.84H66.7953V47.84ZM66.7953 46.88V45.88H65.7953V46.88H66.7953ZM71.7633 46.88L72.4704 46.1729L72.1775 45.88H71.7633V46.88ZM73.9953 49.112H74.9953V48.6978L74.7024 48.4049L73.9953 49.112ZM73.9953 67.04H72.9953V68.04H73.9953V67.04ZM74.6753 67.04V68H76.6753V67.04H74.6753ZM75.6753 67H70.7073V69H75.6753V67ZM71.4144 67.2929L69.1824 65.0609L67.7682 66.4751L70.0002 68.7071L71.4144 67.2929ZM69.4753 65.768V47.84H67.4753V65.768H69.4753ZM68.4753 46.84H66.7953V48.84H68.4753V46.84ZM67.7953 47.84V46.88H65.7953V47.84H67.7953ZM66.7953 47.88H71.7633V45.88H66.7953V47.88ZM71.0562 47.5871L73.2882 49.8191L74.7024 48.4049L72.4704 46.1729L71.0562 47.5871ZM72.9953 49.112V67.04H74.9953V49.112H72.9953ZM73.9953 68.04H75.6753V66.04H73.9953V68.04ZM92.2269 67.04H93.2269V66.04H92.2269V67.04ZM92.2269 68V69H93.2269V68H92.2269ZM87.2589 68L86.5518 68.7071L86.8447 69H87.2589V68ZM85.0269 65.768H84.0269V66.1822L84.3198 66.4751L85.0269 65.768ZM85.0269 47.84H86.0269V46.84H85.0269V47.84ZM83.3469 47.84H82.3469V48.84H83.3469V47.84ZM83.3469 46.88V45.88H82.3469V46.88H83.3469ZM88.3149 46.88L89.022 46.1729L88.7291 45.88H88.3149V46.88ZM90.5469 49.112H91.5469V48.6978L91.254 48.4049L90.5469 49.112ZM90.5469 67.04H89.5469V68.04H90.5469V67.04ZM91.2269 67.04V68H93.2269V67.04H91.2269ZM92.2269 67H87.2589V69H92.2269V67ZM87.966 67.2929L85.734 65.0609L84.3198 66.4751L86.5518 68.7071L87.966 67.2929ZM86.0269 65.768V47.84H84.0269V65.768H86.0269ZM85.0269 46.84H83.3469V48.84H85.0269V46.84ZM84.3469 47.84V46.88H82.3469V47.84H84.3469ZM83.3469 47.88H88.3149V45.88H83.3469V47.88ZM87.6078 47.5871L89.8398 49.8191L91.254 48.4049L89.022 46.1729L87.6078 47.5871ZM89.5469 49.112V67.04H91.5469V49.112H89.5469ZM90.5469 68.04H92.2269V66.04H90.5469V68.04Z" fill="#B22222"/>
</svg>
