<svg width="132" height="27" viewBox="0 0 132 27" fill="none" xmlns="http://www.w3.org/2000/svg">
<path d="M25.2816 23.46C25.3416 23.46 25.3716 23.55 25.3716 23.73C25.3716 23.91 25.3416 24 25.2816 24H20.5566C20.0166 24 19.0266 23.1 17.5866 21.3C16.1466 19.5 14.4216 17.01 12.4116 13.83C11.6316 13.95 11.0016 14.01 10.5216 14.01C10.1016 14.01 9.4416 13.98 8.5416 13.92V20.355C8.5416 21.285 8.6166 21.96 8.7666 22.38C8.9466 22.8 9.2616 23.085 9.7116 23.235C10.1916 23.385 10.9566 23.46 12.0066 23.46C12.0966 23.46 12.1416 23.55 12.1416 23.73C12.1416 23.91 12.0966 24 12.0066 24C11.1966 24 10.5666 23.985 10.1166 23.955L7.3716 23.91L4.7616 23.955C4.2816 23.985 3.6066 24 2.7366 24C2.6766 24 2.6466 23.91 2.6466 23.73C2.6466 23.55 2.6766 23.46 2.7366 23.46C3.7866 23.46 4.5516 23.385 5.0316 23.235C5.5116 23.085 5.8416 22.8 6.0216 22.38C6.2016 21.93 6.2916 21.255 6.2916 20.355V6.585C6.2916 5.685 6.2016 5.025 6.0216 4.605C5.8416 4.185 5.5116 3.9 5.0316 3.75C4.5516 3.57 3.8016 3.48 2.7816 3.48C2.7216 3.48 2.6916 3.39 2.6916 3.21C2.6916 3.03 2.7216 2.94 2.7816 2.94L4.8066 2.985C5.8866 3.045 6.7416 3.075 7.3716 3.075C7.9416 3.075 8.4516 3.06 8.9016 3.03C9.3516 3 9.7266 2.97 10.0266 2.94C10.9566 2.85 11.8266 2.805 12.6366 2.805C14.4666 2.805 15.8616 3.18 16.8216 3.93C17.8116 4.68 18.3066 5.76 18.3066 7.17C18.3066 8.4 17.9616 9.525 17.2716 10.545C16.6116 11.565 15.7116 12.39 14.5716 13.02C16.2816 15.78 17.7066 17.895 18.8466 19.365C20.0166 20.835 21.0966 21.885 22.0866 22.515C23.0766 23.145 24.1416 23.46 25.2816 23.46ZM8.5416 13.065C9.1116 13.185 9.8766 13.245 10.8366 13.245C12.7266 13.245 14.0466 12.84 14.7966 12.03C15.5466 11.19 15.9216 9.975 15.9216 8.385C15.9216 5.055 14.4216 3.39 11.4216 3.39C10.2216 3.39 9.4416 3.645 9.0816 4.155C8.7216 4.665 8.5416 5.505 8.5416 6.675V13.065ZM49.4266 24.54C47.3266 24.54 45.4516 24.045 43.8016 23.055C42.1816 22.065 40.9216 20.745 40.0216 19.095C39.1516 17.415 38.7166 15.6 38.7166 13.65C38.7166 11.31 39.3316 9.285 40.5616 7.575C41.7916 5.865 43.3366 4.575 45.1966 3.705C47.0866 2.835 49.0066 2.4 50.9566 2.4C53.0566 2.4 54.9016 2.91 56.4916 3.93C58.0816 4.95 59.2966 6.285 60.1366 7.935C61.0066 9.585 61.4416 11.31 61.4416 13.11C61.4416 15.15 60.9016 17.055 59.8216 18.825C58.7416 20.565 57.2716 21.96 55.4116 23.01C53.5816 24.03 51.5866 24.54 49.4266 24.54ZM50.6416 23.64C53.1316 23.64 55.1116 22.815 56.5816 21.165C58.0816 19.515 58.8316 17.22 58.8316 14.28C58.8316 12.27 58.4716 10.44 57.7516 8.79C57.0316 7.11 55.9666 5.775 54.5566 4.785C53.1466 3.795 51.4516 3.3 49.4716 3.3C46.8916 3.3 44.8816 4.125 43.4416 5.775C42.0316 7.425 41.3266 9.69 41.3266 12.57C41.3266 14.61 41.6866 16.47 42.4066 18.15C43.1566 19.83 44.2366 21.165 45.6466 22.155C47.0566 23.145 48.7216 23.64 50.6416 23.64ZM83.1361 20.175C83.1361 21.045 83.2111 21.705 83.3611 22.155C83.5411 22.575 83.8711 22.875 84.3511 23.055C84.8311 23.235 85.5511 23.325 86.5111 23.325H90.1111C93.0511 23.325 94.7761 21.525 95.2861 17.925C95.2861 17.865 95.3461 17.835 95.4661 17.835C95.5561 17.835 95.6311 17.85 95.6911 17.88C95.7811 17.91 95.8261 17.955 95.8261 18.015C95.6161 19.305 95.5111 21.075 95.5111 23.325C95.5111 23.565 95.4511 23.745 95.3311 23.865C95.2411 23.955 95.0761 24 94.8361 24H77.3311C77.2711 24 77.2411 23.91 77.2411 23.73C77.2411 23.55 77.2711 23.46 77.3311 23.46C78.3511 23.46 79.1011 23.385 79.5811 23.235C80.0611 23.085 80.3761 22.8 80.5261 22.38C80.7061 21.93 80.7961 21.255 80.7961 20.355V6.585C80.7961 5.685 80.7061 5.025 80.5261 4.605C80.3761 4.185 80.0611 3.9 79.5811 3.75C79.1011 3.57 78.3511 3.48 77.3311 3.48C77.2711 3.48 77.2411 3.39 77.2411 3.21C77.2411 3.03 77.2711 2.94 77.3311 2.94L79.3111 2.985C80.3911 3.045 81.2611 3.075 81.9211 3.075C82.6711 3.075 83.5861 3.045 84.6661 2.985L86.5561 2.94C86.6161 2.94 86.6461 3.03 86.6461 3.21C86.6461 3.39 86.6161 3.48 86.5561 3.48C85.5361 3.48 84.7861 3.57 84.3061 3.75C83.8561 3.9 83.5411 4.2 83.3611 4.65C83.2111 5.07 83.1361 5.73 83.1361 6.63V20.175ZM116.522 20.175C116.522 21.045 116.597 21.705 116.747 22.155C116.927 22.575 117.257 22.875 117.737 23.055C118.217 23.235 118.937 23.325 119.897 23.325H123.497C126.437 23.325 128.162 21.525 128.672 17.925C128.672 17.865 128.732 17.835 128.852 17.835C128.942 17.835 129.017 17.85 129.077 17.88C129.167 17.91 129.212 17.955 129.212 18.015C129.002 19.305 128.897 21.075 128.897 23.325C128.897 23.565 128.837 23.745 128.717 23.865C128.627 23.955 128.462 24 128.222 24H110.717C110.657 24 110.627 23.91 110.627 23.73C110.627 23.55 110.657 23.46 110.717 23.46C111.737 23.46 112.487 23.385 112.967 23.235C113.447 23.085 113.762 22.8 113.912 22.38C114.092 21.93 114.182 21.255 114.182 20.355V6.585C114.182 5.685 114.092 5.025 113.912 4.605C113.762 4.185 113.447 3.9 112.967 3.75C112.487 3.57 111.737 3.48 110.717 3.48C110.657 3.48 110.627 3.39 110.627 3.21C110.627 3.03 110.657 2.94 110.717 2.94L112.697 2.985C113.777 3.045 114.647 3.075 115.307 3.075C116.057 3.075 116.972 3.045 118.052 2.985L119.942 2.94C120.002 2.94 120.032 3.03 120.032 3.21C120.032 3.39 120.002 3.48 119.942 3.48C118.922 3.48 118.172 3.57 117.692 3.75C117.242 3.9 116.927 4.2 116.747 4.65C116.597 5.07 116.522 5.73 116.522 6.63V20.175Z" fill="#F8F8FF" fill-opacity="0.85"/>
<path d="M12.4116 13.83L14.1022 12.7614L13.4023 11.6541L12.1075 11.8533L12.4116 13.83ZM8.5416 13.92L8.67464 11.9244L6.5416 11.7822V13.92H8.5416ZM8.7666 22.38L6.88312 23.0527L6.90393 23.111L6.92831 23.1678L8.7666 22.38ZM9.7116 23.235L9.07915 25.1324L9.09704 25.1383L9.11505 25.144L9.7116 23.235ZM10.1166 23.955L10.2496 21.9594L10.1996 21.9561L10.1494 21.9553L10.1166 23.955ZM7.3716 23.91L7.40438 21.9103L7.37075 21.9097L7.33712 21.9103L7.3716 23.91ZM4.7616 23.955L4.72712 21.9553L4.68194 21.9561L4.63684 21.9589L4.7616 23.955ZM6.0216 22.38L7.85989 23.1678L7.8695 23.1454L7.87855 23.1228L6.0216 22.38ZM5.0316 3.75L4.32935 5.62266L4.38169 5.64229L4.43505 5.65896L5.0316 3.75ZM2.7816 2.94L2.82603 0.940493L2.80382 0.939999H2.7816V2.94ZM4.8066 2.985L4.91754 0.988079L4.88431 0.986233L4.85103 0.985493L4.8066 2.985ZM10.0266 2.94L9.83395 0.949289L9.82759 0.949925L10.0266 2.94ZM16.8216 3.93L15.5903 5.50605L15.602 5.5152L15.6139 5.52418L16.8216 3.93ZM17.2716 10.545L15.615 9.42438L15.6036 9.44132L15.5925 9.4585L17.2716 10.545ZM14.5716 13.02L13.6042 11.2695L11.7643 12.2863L12.8715 14.0733L14.5716 13.02ZM18.8466 19.365L17.2662 20.5906L17.2739 20.6006L17.2818 20.6105L18.8466 19.365ZM22.0866 22.515L21.0128 24.2023L21.0128 24.2023L22.0866 22.515ZM8.5416 13.065H6.5416V14.6878L8.12958 15.0221L8.5416 13.065ZM14.7966 12.03L16.2641 13.3888L16.2764 13.3755L16.2885 13.362L14.7966 12.03ZM9.0816 4.155L10.7155 5.30837L10.7155 5.30837L9.0816 4.155ZM25.2816 25.46C24.7315 25.46 24.2453 25.2297 23.9068 24.8911C23.6173 24.6017 23.4982 24.2994 23.4517 24.16C23.4002 24.0052 23.384 23.8844 23.3782 23.8327C23.3717 23.774 23.3716 23.7367 23.3716 23.73H27.3716C27.3716 23.5816 27.3657 23.2527 27.2465 22.895C27.1444 22.5887 26.6401 21.46 25.2816 21.46V25.46ZM23.3716 23.73C23.3716 23.7233 23.3717 23.686 23.3782 23.6273C23.384 23.5756 23.4002 23.4548 23.4517 23.3C23.4982 23.1606 23.6173 22.8583 23.9068 22.5689C24.2453 22.2303 24.7315 22 25.2816 22V26C26.6401 26 27.1444 24.8713 27.2465 24.565C27.3657 24.2073 27.3716 23.8784 27.3716 23.73H23.3716ZM25.2816 22H20.5566V26H25.2816V22ZM20.5566 22C20.9388 22 21.1419 22.1431 21.0813 22.1074C21.052 22.0902 20.9459 22.0192 20.7544 21.8451C20.3737 21.499 19.8422 20.918 19.1483 20.0506L16.0249 22.5494C16.771 23.482 17.4545 24.251 18.0638 24.8049C18.3673 25.0808 18.6999 25.3473 19.0532 25.5551C19.375 25.7444 19.9044 26 20.5566 26V22ZM19.1483 20.0506C17.7742 18.3329 16.094 15.9126 14.1022 12.7614L10.721 14.8986C12.7492 18.1074 14.519 20.6671 16.0249 22.5494L19.1483 20.0506ZM12.1075 11.8533C11.3729 11.9663 10.856 12.01 10.5216 12.01V16.01C11.1472 16.01 11.8903 15.9337 12.7157 15.8067L12.1075 11.8533ZM10.5216 12.01C10.1725 12.01 9.56856 11.984 8.67464 11.9244L8.40856 15.9156C9.31464 15.976 10.0307 16.01 10.5216 16.01V12.01ZM6.5416 13.92V20.355H10.5416V13.92H6.5416ZM6.5416 20.355C6.5416 21.3207 6.61038 22.289 6.88312 23.0527L10.6501 21.7073C10.6508 21.7093 10.641 21.6817 10.6272 21.6146C10.6137 21.549 10.599 21.4581 10.5856 21.3379C10.5586 21.0949 10.5416 20.7711 10.5416 20.355H6.5416ZM6.92831 23.1678C7.34292 24.1353 8.11066 24.8095 9.07915 25.1324L10.3441 21.3376C10.3509 21.3399 10.4092 21.3619 10.4797 21.4257C10.5516 21.4908 10.5901 21.5577 10.6049 21.5922L6.92831 23.1678ZM9.11505 25.144C9.90206 25.3899 10.9246 25.46 12.0066 25.46V21.46C10.9886 21.46 10.4811 21.3801 10.3082 21.326L9.11505 25.144ZM12.0066 25.46C11.6791 25.46 11.3034 25.3724 10.9563 25.141C10.6217 24.9179 10.4264 24.6367 10.319 24.4219C10.1325 24.049 10.1416 23.7421 10.1416 23.73H14.1416C14.1416 23.5379 14.1282 23.096 13.8967 22.6331C13.7668 22.3733 13.5434 22.0583 13.1751 21.8128C12.7942 21.5589 12.3791 21.46 12.0066 21.46V25.46ZM10.1416 23.73C10.1416 23.7179 10.1325 23.411 10.319 23.0381C10.4264 22.8233 10.6217 22.5421 10.9563 22.319C11.3034 22.0876 11.6791 22 12.0066 22V26C12.3791 26 12.7942 25.9011 13.1751 25.6472C13.5434 25.4017 13.7668 25.0867 13.8967 24.8269C14.1282 24.364 14.1416 23.9221 14.1416 23.73H10.1416ZM12.0066 22C11.2121 22 10.6337 21.985 10.2496 21.9594L9.98356 25.9506C10.4995 25.985 11.1811 26 12.0066 26V22ZM10.1494 21.9553L7.40438 21.9103L7.33882 25.9097L10.0838 25.9547L10.1494 21.9553ZM7.33712 21.9103L4.72712 21.9553L4.79608 25.9547L7.40608 25.9097L7.33712 21.9103ZM4.63684 21.9589C4.21887 21.985 3.59243 22 2.7366 22V26C3.62078 26 4.34433 25.985 4.88636 25.9511L4.63684 21.9589ZM2.7366 22C3.28671 22 3.77287 22.2303 4.11144 22.5689C4.40089 22.8584 4.52 23.1606 4.56647 23.3C4.61804 23.4548 4.63425 23.5756 4.63999 23.6273C4.64652 23.686 4.6466 23.7233 4.6466 23.73H0.6466C0.6466 23.8784 0.652509 24.2073 0.771734 24.565C0.873832 24.8713 1.37809 26 2.7366 26V22ZM4.6466 23.73C4.6466 23.7367 4.64652 23.774 4.63999 23.8327C4.63425 23.8844 4.61804 24.0052 4.56647 24.16C4.52 24.2994 4.40089 24.6016 4.11144 24.8911C3.77287 25.2297 3.28671 25.46 2.7366 25.46V21.46C1.37809 21.46 0.873832 22.5887 0.771734 22.895C0.652509 23.2527 0.6466 23.5816 0.6466 23.73H4.6466ZM2.7366 25.46C3.81859 25.46 4.84115 25.3899 5.62815 25.144L4.43505 21.326C4.26205 21.3801 3.75461 21.46 2.7366 21.46V25.46ZM5.62815 25.144C6.60277 24.8394 7.42479 24.1831 7.85989 23.1678L4.18331 21.5922C4.20704 21.5368 4.25598 21.4606 4.33186 21.3951C4.40357 21.3332 4.45338 21.3203 4.43505 21.326L5.62815 25.144ZM7.87855 23.1228C8.2025 22.3129 8.2916 21.3294 8.2916 20.355H4.2916C4.2916 21.1806 4.2007 21.5471 4.16465 21.6372L7.87855 23.1228ZM8.2916 20.355V6.585H4.2916V20.355H8.2916ZM8.2916 6.585C8.2916 5.62586 8.2066 4.62614 7.85989 3.81716L4.18331 5.39284C4.17821 5.38094 4.21171 5.45989 4.24244 5.68523C4.27184 5.90083 4.2916 6.19627 4.2916 6.585H8.2916ZM7.85989 3.81716C7.42479 2.80193 6.60277 2.14561 5.62815 1.84104L4.43505 5.65896C4.45338 5.66469 4.40357 5.65183 4.33186 5.5899C4.25598 5.52436 4.20704 5.4482 4.18331 5.39284L7.85989 3.81716ZM5.73385 1.87734C4.90238 1.56554 3.85218 1.48 2.7816 1.48V5.48C3.75102 5.48 4.20082 5.57446 4.32935 5.62266L5.73385 1.87734ZM2.7816 1.48C3.3317 1.48 3.81786 1.71034 4.15644 2.04891C4.44589 2.33836 4.565 2.64064 4.61147 2.78004C4.66304 2.93477 4.67925 3.05559 4.68499 3.10726C4.69152 3.16597 4.6916 3.20334 4.6916 3.21H0.6916C0.6916 3.35837 0.697509 3.68728 0.816734 4.04496C0.918834 4.35125 1.42309 5.48 2.7816 5.48V1.48ZM4.6916 3.21C4.6916 3.21666 4.69152 3.25403 4.68499 3.31274C4.67925 3.36441 4.66304 3.48522 4.61147 3.63995C4.565 3.77936 4.44589 4.08164 4.15644 4.37109C3.81787 4.70966 3.33171 4.94 2.7816 4.94V0.939999C1.42309 0.939999 0.918831 2.06875 0.816733 2.37504C0.697509 2.73272 0.6916 3.06163 0.6916 3.21H4.6916ZM2.73717 4.93951L4.76217 4.98451L4.85103 0.985493L2.82603 0.940493L2.73717 4.93951ZM4.69566 4.98192C5.79052 5.04275 6.68764 5.075 7.3716 5.075V1.075C6.79556 1.075 5.98268 1.04725 4.91754 0.988079L4.69566 4.98192ZM7.3716 5.075C7.97502 5.075 8.53062 5.05917 9.03464 5.02557L8.76856 1.03443C8.37258 1.06083 7.90818 1.075 7.3716 1.075V5.075ZM9.03464 5.02557C9.49704 4.99474 9.89579 4.96306 10.2256 4.93007L9.82759 0.949925C9.55741 0.976943 9.20616 1.00526 8.76856 1.03443L9.03464 5.02557ZM10.2192 4.9307C11.0947 4.84598 11.8998 4.805 12.6366 4.805V0.804999C11.7534 0.804999 10.8185 0.854019 9.83395 0.949299L10.2192 4.9307ZM12.6366 4.805C14.2343 4.805 15.1198 5.13847 15.5903 5.50605L18.0529 2.35395C16.6034 1.22153 14.6989 0.804999 12.6366 0.804999V4.805ZM15.6139 5.52418C16.0325 5.84131 16.3066 6.28945 16.3066 7.17H20.3066C20.3066 5.23055 19.5907 3.51869 18.0293 2.33581L15.6139 5.52418ZM16.3066 7.17C16.3066 8.00004 16.0815 8.73482 15.615 9.42438L18.9282 11.6656C19.8417 10.3152 20.3066 8.79996 20.3066 7.17H16.3066ZM15.5925 9.4585C15.1242 10.1821 14.4773 10.787 13.6042 11.2695L15.539 14.7705C16.9459 13.993 18.099 12.9479 18.9507 11.6315L15.5925 9.4585ZM12.8715 14.0733C14.5955 16.8561 16.0631 19.0393 17.2662 20.5906L20.427 18.1394C19.3501 16.7507 17.9677 14.7039 16.2717 11.9667L12.8715 14.0733ZM17.2818 20.6105C18.5172 22.1627 19.7578 23.4036 21.0128 24.2023L23.1604 20.8277C22.4354 20.3664 21.516 19.5073 20.4114 18.1195L17.2818 20.6105ZM21.0128 24.2023C22.3138 25.0302 23.7496 25.46 25.2816 25.46V21.46C24.5336 21.46 23.8394 21.2598 23.1604 20.8277L21.0128 24.2023ZM8.12958 15.0221C8.89372 15.183 9.8148 15.245 10.8366 15.245V11.245C9.9384 11.245 9.32948 11.187 8.95362 11.1079L8.12958 15.0221ZM10.8366 15.245C12.9087 15.245 14.9398 14.8191 16.2641 13.3888L13.3291 10.6712C13.1534 10.8609 12.5445 11.245 10.8366 11.245V15.245ZM16.2885 13.362C17.4788 12.0289 17.9216 10.265 17.9216 8.385H13.9216C13.9216 9.68504 13.6144 10.3511 13.3047 10.698L16.2885 13.362ZM17.9216 8.385C17.9216 6.46026 17.4926 4.64328 16.2825 3.30008C15.0367 1.91721 13.2869 1.39 11.4216 1.39V5.39C12.5563 5.39 13.0565 5.69529 13.3107 5.97742C13.6006 6.29922 13.9216 6.97973 13.9216 8.385H17.9216ZM11.4216 1.39C10.1324 1.39 8.41813 1.62681 7.44766 3.00163L10.7155 5.30837C10.5793 5.50131 10.4489 5.51793 10.5581 5.48224C10.6779 5.44306 10.9444 5.39 11.4216 5.39V1.39ZM7.44766 3.00163C6.71797 4.03537 6.5416 5.40159 6.5416 6.675H10.5416C10.5416 6.184 10.5801 5.82952 10.6322 5.58656C10.6856 5.33757 10.738 5.27654 10.7155 5.30837L7.44766 3.00163ZM6.5416 6.675V13.065H10.5416V6.675H6.5416ZM43.8016 23.055L42.7587 24.7616L42.7656 24.7658L42.7726 24.77L43.8016 23.055ZM40.0216 19.095L38.2456 20.0147L38.2555 20.0338L38.2658 20.0527L40.0216 19.095ZM40.5616 7.575L42.1852 8.74286L42.1852 8.74286L40.5616 7.575ZM45.1966 3.705L44.3603 1.8882L44.3492 1.89338L45.1966 3.705ZM56.4916 3.93L55.4117 5.61339L55.4117 5.61339L56.4916 3.93ZM60.1366 7.935L58.3542 8.84236L58.3607 8.85514L58.3674 8.86782L60.1366 7.935ZM59.8216 18.825L61.5208 19.8797L61.5249 19.8732L61.5288 19.8667L59.8216 18.825ZM55.4116 23.01L56.3853 24.757L56.3947 24.7516L55.4116 23.01ZM56.5816 21.165L55.1017 19.8197L55.0949 19.8271L55.0882 19.8346L56.5816 21.165ZM57.7516 8.79L55.9132 9.57785L55.9185 9.58989L57.7516 8.79ZM54.5566 4.785L55.7058 3.14817L55.7058 3.14817L54.5566 4.785ZM43.4416 5.775L41.9347 4.45993L41.9279 4.46778L41.9211 4.47569L43.4416 5.775ZM42.4066 18.15L40.5683 18.9378L40.5742 18.9516L40.5803 18.9653L42.4066 18.15ZM45.6466 22.155L46.7958 20.5182L46.7958 20.5182L45.6466 22.155ZM49.4266 22.54C47.6548 22.54 46.1416 22.1267 44.8306 21.34L42.7726 24.77C44.7615 25.9633 46.9983 26.54 49.4266 26.54V22.54ZM44.8445 21.3484C43.5204 20.5393 42.5077 19.4762 41.7774 18.1373L38.2658 20.0527C39.3354 22.0138 40.8427 23.5907 42.7587 24.7616L44.8445 21.3484ZM41.7975 18.1753C41.0794 16.7884 40.7166 15.2901 40.7166 13.65H36.7166C36.7166 15.9099 37.2238 18.0416 38.2456 20.0147L41.7975 18.1753ZM40.7166 13.65C40.7166 11.6804 41.2269 10.0751 42.1852 8.74286L38.938 6.40714C37.4363 8.49487 36.7166 10.9396 36.7166 13.65H40.7166ZM42.1852 8.74286C43.221 7.30275 44.5017 6.23801 46.0439 5.51662L44.3492 1.89338C42.1715 2.91199 40.3621 4.42725 38.938 6.40714L42.1852 8.74286ZM46.0328 5.52176C47.6785 4.76425 49.3144 4.4 50.9566 4.4V0.399999C48.6988 0.399999 46.4946 0.905747 44.3603 1.88824L46.0328 5.52176ZM50.9566 4.4C52.7179 4.4 54.1792 4.82276 55.4117 5.61339L57.5715 2.24661C55.6239 0.997241 53.3952 0.399999 50.9566 0.399999V4.4ZM55.4117 5.61339C56.7091 6.44573 57.6787 7.51547 58.3542 8.84236L61.9189 7.02763C60.9144 5.05452 59.454 3.45426 57.5715 2.24661L55.4117 5.61339ZM58.3674 8.86782C59.0915 10.2411 59.4416 11.6471 59.4416 13.11H63.4416C63.4416 10.9729 62.9216 8.92892 61.9057 7.00218L58.3674 8.86782ZM59.4416 13.11C59.4416 14.7761 59.0062 16.3216 58.1143 17.7833L61.5288 19.8667C62.797 17.7884 63.4416 15.5239 63.4416 13.11H59.4416ZM58.1223 17.7703C57.2272 19.2123 56.0088 20.3762 54.4284 21.2684L56.3947 24.7516C58.5343 23.5438 60.2559 21.9177 61.5208 19.8797L58.1223 17.7703ZM54.4378 21.263C52.915 22.1118 51.2567 22.54 49.4266 22.54V26.54C51.9164 26.54 54.2481 25.9482 56.3853 24.757L54.4378 21.263ZM50.6416 25.64C53.6216 25.64 56.175 24.6279 58.0749 22.4954L55.0882 19.8346C54.0481 21.0021 52.6415 21.64 50.6416 21.64V25.64ZM58.0614 22.5103C59.9911 20.3877 60.8316 17.5555 60.8316 14.28H56.8316C56.8316 16.8845 56.172 18.6423 55.1017 19.8197L58.0614 22.5103ZM60.8316 14.28C60.8316 12.0269 60.4269 9.9203 59.5846 7.99011L55.9185 9.58989C56.5162 10.9597 56.8316 12.5131 56.8316 14.28H60.8316ZM59.5898 8.00216C58.7328 6.00237 57.4387 4.36486 55.7058 3.14817L53.4073 6.42183C54.4944 7.18514 55.3303 8.21762 55.9133 9.57784L59.5898 8.00216ZM55.7058 3.14817C53.9107 1.88778 51.7994 1.3 49.4716 1.3V5.3C51.1037 5.3 52.3824 5.70222 53.4073 6.42183L55.7058 3.14817ZM49.4716 1.3C46.4272 1.3 43.8231 2.29612 41.9347 4.45993L44.9484 7.09007C45.94 5.95388 47.356 5.3 49.4716 5.3V1.3ZM41.9211 4.47569C40.1127 6.59191 39.3266 9.37115 39.3266 12.57H43.3266C43.3266 10.0089 43.9504 8.25808 44.962 7.0743L41.9211 4.47569ZM39.3266 12.57C39.3266 14.8494 39.7298 16.9815 40.5683 18.9378L44.2448 17.3622C43.6433 15.9585 43.3266 14.3706 43.3266 12.57H39.3266ZM40.5803 18.9653C41.4672 20.952 42.7714 22.58 44.4973 23.7918L46.7958 20.5182C45.7018 19.75 44.8459 18.708 44.2328 17.3347L40.5803 18.9653ZM44.4973 23.7918C46.282 25.0449 48.3594 25.64 50.6416 25.64V21.64C49.0838 21.64 47.8311 21.2451 46.7958 20.5182L44.4973 23.7918ZM83.3611 22.155L81.4638 22.7875L81.4901 22.8664L81.5228 22.9428L83.3611 22.155ZM84.3511 23.055L83.6489 24.9277L83.6489 24.9277L84.3511 23.055ZM95.2861 17.925L97.2664 18.2055L97.2861 18.066V17.925H95.2861ZM95.6911 17.88L94.7967 19.6689L94.9238 19.7324L95.0587 19.7774L95.6911 17.88ZM95.8261 18.015L97.8001 18.3364L97.8261 18.1767V18.015H95.8261ZM95.3311 23.865L93.9169 22.4508L93.9169 22.4508L95.3311 23.865ZM80.5261 22.38L78.6692 21.6372L78.6553 21.672L78.6426 21.7073L80.5261 22.38ZM80.5261 4.605L78.6426 5.27767L78.6635 5.33595L78.6878 5.39284L80.5261 4.605ZM79.5811 3.75L78.8789 5.62266L78.9312 5.64229L78.9846 5.65896L79.5811 3.75ZM77.3311 2.94L77.3766 0.940515L77.3539 0.939999H77.3311V2.94ZM79.3111 2.985L79.4221 0.988079L79.3893 0.986261L79.3566 0.985516L79.3111 2.985ZM84.6661 2.985L84.6185 0.985566L84.5868 0.986321L84.5552 0.988079L84.6661 2.985ZM86.5561 2.94V0.939999H86.5323L86.5085 0.940566L86.5561 2.94ZM84.3061 3.75L84.9386 5.64737L84.9737 5.63566L85.0084 5.62266L84.3061 3.75ZM83.3611 4.65L81.5042 3.90722L81.4903 3.94202L81.4776 3.97733L83.3611 4.65ZM81.1361 20.175C81.1361 21.1121 81.211 22.0292 81.4638 22.7875L85.2585 21.5225C85.2112 21.3808 85.1361 20.9779 85.1361 20.175H81.1361ZM81.5228 22.9428C81.9449 23.9277 82.7266 24.5818 83.6489 24.9277L85.0534 21.1823C85.0156 21.1682 85.0406 21.1711 85.089 21.2151C85.1123 21.2363 85.1356 21.2622 85.1563 21.2915C85.177 21.3206 85.1908 21.3471 85.1994 21.3672L81.5228 22.9428ZM83.6489 24.9277C84.4718 25.2363 85.483 25.325 86.5111 25.325V21.325C85.6193 21.325 85.1904 21.2337 85.0534 21.1823L83.6489 24.9277ZM86.5111 25.325H90.1111V21.325H86.5111V25.325ZM90.1111 25.325C92.0204 25.325 93.7467 24.7228 95.0539 23.3588C96.3117 22.0463 96.9783 20.2385 97.2664 18.2055L93.3059 17.6445C93.0839 19.2115 92.6331 20.1037 92.1659 20.5912C91.7481 21.0272 91.1418 21.325 90.1111 21.325V25.325ZM97.2861 17.925C97.2861 18.26 97.1966 18.6423 96.9615 18.995C96.7347 19.3352 96.4478 19.5352 96.2256 19.6464C95.8376 19.8403 95.5083 19.835 95.4661 19.835V15.835C95.304 15.835 94.8846 15.8447 94.4367 16.0686C94.1844 16.1948 93.8751 16.4135 93.6333 16.7762C93.3831 17.1515 93.2861 17.56 93.2861 17.925H97.2861ZM95.4661 19.835C95.3468 19.835 95.0926 19.8168 94.7967 19.6689L96.5856 16.0911C96.1696 15.8832 95.7654 15.835 95.4661 15.835V19.835ZM95.0587 19.7774C94.9418 19.7384 94.6564 19.6287 94.3782 19.3505C94.0508 19.0231 93.8261 18.5501 93.8261 18.015H97.8261C97.8261 16.6265 96.6749 16.0997 96.3236 15.9826L95.0587 19.7774ZM93.8521 17.6936C93.6168 19.139 93.5111 21.0323 93.5111 23.325H97.5111C97.5111 21.1177 97.6154 19.471 97.8001 18.3364L93.8521 17.6936ZM93.5111 23.325C93.5111 23.2567 93.5296 22.8381 93.9169 22.4508L96.7453 25.2792C97.3727 24.6519 97.5111 23.8733 97.5111 23.325H93.5111ZM93.9169 22.4508C94.1884 22.1793 94.4715 22.0755 94.6136 22.0367C94.6893 22.0161 94.7476 22.0075 94.7812 22.0038C94.8154 22 94.8349 22 94.8361 22V26C95.1869 26 96.0622 25.9623 96.7453 25.2792L93.9169 22.4508ZM94.8361 22H77.3311V26H94.8361V22ZM77.3311 22C77.8812 22 78.3674 22.2303 78.706 22.5689C78.9954 22.8584 79.1145 23.1606 79.161 23.3C79.2126 23.4548 79.2288 23.5756 79.2345 23.6273C79.241 23.686 79.2411 23.7233 79.2411 23.73H75.2411C75.2411 23.8784 75.247 24.2073 75.3663 24.565C75.4684 24.8713 75.9726 26 77.3311 26V22ZM79.2411 23.73C79.2411 23.7367 79.241 23.774 79.2345 23.8327C79.2288 23.8844 79.2126 24.0052 79.161 24.16C79.1145 24.2994 78.9954 24.6016 78.706 24.8911C78.3674 25.2297 77.8812 25.46 77.3311 25.46V21.46C75.9726 21.46 75.4684 22.5887 75.3663 22.895C75.247 23.2527 75.2411 23.5816 75.2411 23.73H79.2411ZM77.3311 25.46C78.3902 25.46 79.3939 25.3889 80.1777 25.144L78.9846 21.326C78.8083 21.3811 78.3121 21.46 77.3311 21.46V25.46ZM80.1777 25.144C81.1694 24.8341 82.0194 24.1453 82.4096 23.0527L78.6426 21.7073C78.6729 21.6227 78.7361 21.5156 78.8356 21.4257C78.9286 21.3415 78.9985 21.3217 78.9846 21.326L80.1777 25.144ZM82.3831 23.1228C82.707 22.3129 82.7961 21.3294 82.7961 20.355H78.7961C78.7961 21.1806 78.7052 21.5471 78.6692 21.6372L82.3831 23.1228ZM82.7961 20.355V6.585H78.7961V20.355H82.7961ZM82.7961 6.585C82.7961 5.62586 82.7111 4.62614 82.3644 3.81716L78.6878 5.39284C78.6827 5.38094 78.7162 5.45989 78.747 5.68523C78.7764 5.90083 78.7961 6.19627 78.7961 6.585H82.7961ZM82.4096 3.93233C82.0194 2.83974 81.1694 2.15095 80.1777 1.84104L78.9846 5.65896C78.9985 5.6633 78.9286 5.6435 78.8356 5.55932C78.7361 5.46935 78.6729 5.36232 78.6426 5.27767L82.4096 3.93233ZM80.2834 1.87734C79.4519 1.56554 78.4017 1.48 77.3311 1.48V5.48C78.3006 5.48 78.7503 5.57446 78.8789 5.62266L80.2834 1.87734ZM77.3311 1.48C77.8812 1.48 78.3674 1.71034 78.706 2.04891C78.9954 2.33836 79.1145 2.64064 79.161 2.78004C79.2126 2.93477 79.2288 3.05559 79.2345 3.10726C79.241 3.16597 79.2411 3.20334 79.2411 3.21H75.2411C75.2411 3.35837 75.247 3.68728 75.3663 4.04496C75.4684 4.35125 75.9726 5.48 77.3311 5.48V1.48ZM79.2411 3.21C79.2411 3.21666 79.241 3.25403 79.2345 3.31274C79.2288 3.36441 79.2126 3.48522 79.161 3.63995C79.1145 3.77936 78.9954 4.08164 78.706 4.37109C78.3674 4.70966 77.8812 4.94 77.3311 4.94V0.939999C75.9726 0.939999 75.4684 2.06875 75.3663 2.37504C75.247 2.73272 75.2411 3.06163 75.2411 3.21H79.2411ZM77.2857 4.93948L79.2657 4.98448L79.3566 0.985516L77.3766 0.940515L77.2857 4.93948ZM79.2002 4.98192C80.2971 5.04286 81.2084 5.075 81.9211 5.075V1.075C81.3139 1.075 80.4852 1.04714 79.4221 0.988079L79.2002 4.98192ZM81.9211 5.075C82.7203 5.075 83.6747 5.04316 84.7771 4.98192L84.5552 0.988079C83.4975 1.04684 82.6219 1.075 81.9211 1.075V5.075ZM84.7137 4.98443L86.6037 4.93943L86.5085 0.940566L84.6185 0.985566L84.7137 4.98443ZM86.5561 4.94C86.006 4.94 85.5199 4.70966 85.1813 4.37109C84.8918 4.08164 84.7727 3.77936 84.7263 3.63995C84.6747 3.48523 84.6585 3.36441 84.6527 3.31274C84.6462 3.25403 84.6461 3.21666 84.6461 3.21H88.6461C88.6461 3.06163 88.6402 2.73272 88.521 2.37504C88.4189 2.06875 87.9146 0.939999 86.5561 0.939999V4.94ZM84.6461 3.21C84.6461 3.20334 84.6462 3.16597 84.6527 3.10726C84.6585 3.05559 84.6747 2.93477 84.7263 2.78004C84.7727 2.64064 84.8918 2.33836 85.1813 2.04891C85.5199 1.71034 86.006 1.48 86.5561 1.48V5.48C87.9146 5.48 88.4189 4.35126 88.521 4.04496C88.6402 3.68728 88.6461 3.35837 88.6461 3.21H84.6461ZM86.5561 1.48C85.4856 1.48 84.4353 1.56554 83.6039 1.87734L85.0084 5.62266C85.1369 5.57446 85.5867 5.48 86.5561 5.48V1.48ZM83.6737 1.85263C82.6517 2.19329 81.8972 2.92469 81.5042 3.90722L85.2181 5.39278C85.2136 5.40389 85.1849 5.46609 85.1117 5.53578C85.0376 5.60635 84.9669 5.63791 84.9386 5.64737L83.6737 1.85263ZM81.4776 3.97733C81.2064 4.73683 81.1361 5.68521 81.1361 6.63H85.1361C85.1361 6.23094 85.153 5.9199 85.1796 5.68582C85.1927 5.57006 85.2073 5.48204 85.2207 5.41791C85.2272 5.38632 85.2331 5.36273 85.2376 5.34626C85.2421 5.3297 85.2447 5.32229 85.2446 5.32267L81.4776 3.97733ZM81.1361 6.63V20.175H85.1361V6.63H81.1361ZM116.747 22.155L114.85 22.7875L114.876 22.8664L114.909 22.9428L116.747 22.155ZM117.737 23.055L117.035 24.9277L117.035 24.9277L117.737 23.055ZM128.672 17.925L130.652 18.2055L130.672 18.066V17.925H128.672ZM129.077 17.88L128.183 19.6689L128.31 19.7324L128.445 19.7774L129.077 17.88ZM129.212 18.015L131.186 18.3364L131.212 18.1767V18.015H129.212ZM128.717 23.865L127.303 22.4508L127.303 22.4508L128.717 23.865ZM113.912 22.38L112.055 21.6372L112.041 21.672L112.029 21.7073L113.912 22.38ZM113.912 4.605L112.029 5.27767L112.05 5.33595L112.074 5.39284L113.912 4.605ZM112.967 3.75L112.265 5.62266L112.317 5.64229L112.371 5.65896L112.967 3.75ZM110.717 2.94L110.763 0.940515L110.74 0.939999H110.717V2.94ZM112.697 2.985L112.808 0.988079L112.775 0.986261L112.743 0.985516L112.697 2.985ZM118.052 2.985L118.005 0.985566L117.973 0.986321L117.941 0.988079L118.052 2.985ZM119.942 2.94V0.939999H119.918L119.895 0.940566L119.942 2.94ZM117.692 3.75L118.325 5.64737L118.36 5.63566L118.395 5.62266L117.692 3.75ZM116.747 4.65L114.89 3.90722L114.876 3.94202L114.864 3.97733L116.747 4.65ZM114.522 20.175C114.522 21.1121 114.597 22.0292 114.85 22.7875L118.645 21.5225C118.597 21.3808 118.522 20.9779 118.522 20.175H114.522ZM114.909 22.9428C115.331 23.9277 116.113 24.5818 117.035 24.9277L118.44 21.1823C118.402 21.1682 118.427 21.1711 118.475 21.2151C118.498 21.2363 118.522 21.2622 118.542 21.2915C118.563 21.3206 118.577 21.3471 118.586 21.3672L114.909 22.9428ZM117.035 24.9277C117.858 25.2363 118.869 25.325 119.897 25.325V21.325C119.005 21.325 118.577 21.2337 118.44 21.1823L117.035 24.9277ZM119.897 25.325H123.497V21.325H119.897V25.325ZM123.497 25.325C125.407 25.325 127.133 24.7228 128.44 23.3588C129.698 22.0463 130.364 20.2385 130.652 18.2055L126.692 17.6445C126.47 19.2115 126.019 20.1037 125.552 20.5912C125.134 21.0272 124.528 21.325 123.497 21.325V25.325ZM130.672 17.925C130.672 18.26 130.583 18.6423 130.348 18.995C130.121 19.3352 129.834 19.5352 129.612 19.6464C129.224 19.8403 128.894 19.835 128.852 19.835V15.835C128.69 15.835 128.271 15.8447 127.823 16.0686C127.571 16.1948 127.261 16.4135 127.019 16.7762C126.769 17.1515 126.672 17.56 126.672 17.925H130.672ZM128.852 19.835C128.733 19.835 128.479 19.8168 128.183 19.6689L129.972 16.0911C129.556 15.8832 129.152 15.835 128.852 15.835V19.835ZM128.445 19.7774C128.328 19.7384 128.042 19.6287 127.764 19.3505C127.437 19.0231 127.212 18.5501 127.212 18.015H131.212C131.212 16.6265 130.061 16.0997 129.71 15.9826L128.445 19.7774ZM127.238 17.6936C127.003 19.139 126.897 21.0323 126.897 23.325H130.897C130.897 21.1177 131.002 19.471 131.186 18.3364L127.238 17.6936ZM126.897 23.325C126.897 23.2567 126.916 22.8381 127.303 22.4508L130.131 25.2792C130.759 24.6519 130.897 23.8733 130.897 23.325H126.897ZM127.303 22.4508C127.575 22.1793 127.858 22.0755 128 22.0367C128.075 22.0161 128.134 22.0075 128.167 22.0038C128.202 22 128.221 22 128.222 22V26C128.573 26 129.448 25.9623 130.131 25.2792L127.303 22.4508ZM128.222 22H110.717V26H128.222V22ZM110.717 22C111.267 22 111.754 22.2303 112.092 22.5689C112.382 22.8584 112.501 23.1606 112.547 23.3C112.599 23.4548 112.615 23.5756 112.621 23.6273C112.627 23.686 112.627 23.7233 112.627 23.73H108.627C108.627 23.8784 108.633 24.2073 108.752 24.565C108.854 24.8713 109.359 26 110.717 26V22ZM112.627 23.73C112.627 23.7367 112.627 23.774 112.621 23.8327C112.615 23.8844 112.599 24.0052 112.547 24.16C112.501 24.2994 112.382 24.6016 112.092 24.8911C111.754 25.2297 111.267 25.46 110.717 25.46V21.46C109.359 21.46 108.854 22.5887 108.752 22.895C108.633 23.2527 108.627 23.5816 108.627 23.73H112.627ZM110.717 25.46C111.776 25.46 112.78 25.3889 113.564 25.144L112.371 21.326C112.194 21.3811 111.698 21.46 110.717 21.46V25.46ZM113.564 25.144C114.556 24.8341 115.406 24.1453 115.796 23.0527L112.029 21.7073C112.059 21.6227 112.122 21.5156 112.222 21.4257C112.315 21.3415 112.385 21.3217 112.371 21.326L113.564 25.144ZM115.769 23.1228C116.093 22.3129 116.182 21.3294 116.182 20.355H112.182C112.182 21.1806 112.091 21.5471 112.055 21.6372L115.769 23.1228ZM116.182 20.355V6.585H112.182V20.355H116.182ZM116.182 6.585C116.182 5.62586 116.097 4.62614 115.751 3.81716L112.074 5.39284C112.069 5.38094 112.102 5.45989 112.133 5.68523C112.163 5.90083 112.182 6.19627 112.182 6.585H116.182ZM115.796 3.93233C115.406 2.83974 114.556 2.15095 113.564 1.84104L112.371 5.65896C112.385 5.6633 112.315 5.6435 112.222 5.55932C112.122 5.46935 112.059 5.36232 112.029 5.27767L115.796 3.93233ZM113.67 1.87734C112.838 1.56554 111.788 1.48 110.717 1.48V5.48C111.687 5.48 112.136 5.57446 112.265 5.62266L113.67 1.87734ZM110.717 1.48C111.267 1.48 111.754 1.71034 112.092 2.04891C112.382 2.33836 112.501 2.64064 112.547 2.78004C112.599 2.93477 112.615 3.05559 112.621 3.10726C112.627 3.16597 112.627 3.20334 112.627 3.21H108.627C108.627 3.35837 108.633 3.68728 108.752 4.04496C108.854 4.35125 109.359 5.48 110.717 5.48V1.48ZM112.627 3.21C112.627 3.21666 112.627 3.25403 112.621 3.31274C112.615 3.36441 112.599 3.48522 112.547 3.63995C112.501 3.77936 112.382 4.08164 112.092 4.37109C111.754 4.70966 111.267 4.94 110.717 4.94V0.939999C109.359 0.939999 108.854 2.06875 108.752 2.37504C108.633 2.73272 108.627 3.06163 108.627 3.21H112.627ZM110.672 4.93948L112.652 4.98448L112.743 0.985516L110.763 0.940515L110.672 4.93948ZM112.586 4.98192C113.683 5.04286 114.595 5.075 115.307 5.075V1.075C114.7 1.075 113.871 1.04714 112.808 0.988079L112.586 4.98192ZM115.307 5.075C116.106 5.075 117.061 5.04316 118.163 4.98192L117.941 0.988079C116.884 1.04684 116.008 1.075 115.307 1.075V5.075ZM118.1 4.98443L119.99 4.93943L119.895 0.940566L118.005 0.985566L118.1 4.98443ZM119.942 4.94C119.392 4.94 118.906 4.70966 118.567 4.37109C118.278 4.08164 118.159 3.77936 118.112 3.63995C118.061 3.48523 118.045 3.36441 118.039 3.31274C118.032 3.25403 118.032 3.21666 118.032 3.21H122.032C122.032 3.06163 122.026 2.73272 121.907 2.37504C121.805 2.06875 121.301 0.939999 119.942 0.939999V4.94ZM118.032 3.21C118.032 3.20334 118.032 3.16597 118.039 3.10726C118.045 3.05559 118.061 2.93477 118.112 2.78004C118.159 2.64064 118.278 2.33836 118.567 2.04891C118.906 1.71034 119.392 1.48 119.942 1.48V5.48C121.301 5.48 121.805 4.35126 121.907 4.04496C122.026 3.68728 122.032 3.35837 122.032 3.21H118.032ZM119.942 1.48C118.872 1.48 117.821 1.56554 116.99 1.87734L118.395 5.62266C118.523 5.57446 118.973 5.48 119.942 5.48V1.48ZM117.06 1.85263C116.038 2.19329 115.283 2.92469 114.89 3.90722L118.604 5.39278C118.6 5.40389 118.571 5.46609 118.498 5.53578C118.424 5.60635 118.353 5.63791 118.325 5.64737L117.06 1.85263ZM114.864 3.97733C114.593 4.73683 114.522 5.68521 114.522 6.63H118.522C118.522 6.23094 118.539 5.9199 118.566 5.68582C118.579 5.57006 118.593 5.48204 118.607 5.41791C118.613 5.38632 118.619 5.36273 118.624 5.34626C118.628 5.3297 118.631 5.32229 118.631 5.32267L114.864 3.97733ZM114.522 6.63V20.175H118.522V6.63H114.522Z" fill="#B22222"/>
</svg>
