<svg width="184" height="184" viewBox="0 0 184 184" fill="none" xmlns="http://www.w3.org/2000/svg">
<path d="M22.1997 31.0404L21.9993 31.1263L21.9258 31.3315L1.52923 88.3315L1.47368 88.4868L1.52137 88.6446L21.918 156.145L21.9893 156.381L22.2199 156.468L91.0585 182.468L91.2259 182.531L91.3955 182.474L162.274 158.474L162.514 158.392L162.59 158.149L182.477 94.6494L182.524 94.4994L182.477 94.3495L162.59 31.3495L162.52 31.1277L162.305 31.0384L91.4272 1.53839L91.2323 1.45724L91.0382 1.54042L22.1997 31.0404Z" fill="#181818" fill-opacity="0.83" stroke="black"/>
<path d="M54.0943 106.4C54.1943 106.4 54.2443 106.5 54.2443 106.7C54.2443 106.9 54.1943 107 54.0943 107H46.6943C46.161 107 45.1943 106 43.7943 104C42.4277 101.967 40.8277 99.2167 38.9943 95.75C38.2943 95.85 37.5777 95.9 36.8443 95.9C36.311 95.9 35.911 95.8833 35.6443 95.85V102.95C35.6443 103.95 35.711 104.7 35.8443 105.2C36.011 105.667 36.311 105.983 36.7443 106.15C37.211 106.317 37.9443 106.4 38.9443 106.4C39.011 106.4 39.0443 106.5 39.0443 106.7C39.0443 106.9 39.011 107 38.9443 107C37.9777 107 37.211 106.983 36.6443 106.95L33.3443 106.9L30.2443 106.95C29.6443 106.983 28.8277 107 27.7943 107C27.7277 107 27.6943 106.9 27.6943 106.7C27.6943 106.5 27.7277 106.4 27.7943 106.4C28.7943 106.4 29.5277 106.317 29.9943 106.15C30.461 105.983 30.7777 105.667 30.9443 105.2C31.111 104.7 31.1943 103.95 31.1943 102.95V87.65C31.1943 86.65 31.111 85.9167 30.9443 85.45C30.7777 84.9833 30.461 84.6667 29.9943 84.5C29.5277 84.3 28.811 84.2 27.8443 84.2C27.7777 84.2 27.7443 84.1 27.7443 83.9C27.7443 83.7 27.7777 83.6 27.8443 83.6L30.2943 83.65C31.561 83.7167 32.5777 83.75 33.3443 83.75C33.9777 83.75 34.561 83.7333 35.0943 83.7C35.6277 83.6667 36.0943 83.6333 36.4943 83.6C37.5943 83.5 38.5943 83.45 39.4943 83.45C41.961 83.45 43.8277 83.8667 45.0943 84.7C46.3943 85.5333 47.0443 86.7333 47.0443 88.3C47.0443 89.6 46.6443 90.8167 45.8443 91.95C45.0443 93.0833 43.9443 93.9833 42.5443 94.65C44.3443 97.6833 45.8943 100.05 47.1943 101.75C48.4943 103.417 49.6777 104.617 50.7443 105.35C51.811 106.05 52.9277 106.4 54.0943 106.4ZM35.6443 94.95C35.9443 94.9833 36.461 95 37.1943 95C39.161 95 40.5277 94.55 41.2943 93.65C42.061 92.75 42.4443 91.4167 42.4443 89.65C42.4443 86.1167 41.061 84.35 38.2943 84.35C37.1943 84.35 36.4777 84.5833 36.1443 85.05C35.811 85.4833 35.6443 86.3833 35.6443 87.75V94.95ZM76.458 107.6C74.0913 107.6 71.9747 107.05 70.108 105.95C68.2747 104.817 66.8413 103.317 65.808 101.45C64.808 99.5833 64.308 97.55 64.308 95.35C64.308 92.7833 64.958 90.5667 66.258 88.7C67.5913 86.8333 69.2913 85.4167 71.358 84.45C73.4247 83.4833 75.5413 83 77.708 83C80.0747 83 82.158 83.5833 83.958 84.75C85.758 85.8833 87.1413 87.3667 88.108 89.2C89.108 91.0333 89.608 92.9667 89.608 95C89.608 97.2333 89.0247 99.3167 87.858 101.25C86.6913 103.183 85.0913 104.733 83.058 105.9C81.058 107.033 78.858 107.6 76.458 107.6ZM77.658 106.5C79.758 106.5 81.4413 105.583 82.708 103.75C84.008 101.917 84.658 99.3833 84.658 96.15C84.658 93.95 84.308 91.95 83.608 90.15C82.908 88.3167 81.908 86.8667 80.608 85.8C79.308 84.7333 77.7747 84.2 76.008 84.2C73.8413 84.2 72.1747 85.0333 71.008 86.7C69.8413 88.3667 69.258 90.7667 69.258 93.9C69.258 96.2667 69.608 98.4167 70.308 100.35C71.0413 102.25 72.0413 103.75 73.308 104.85C74.5747 105.95 76.0247 106.5 77.658 106.5ZM110.374 102.75C110.374 103.65 110.457 104.333 110.624 104.8C110.824 105.267 111.157 105.6 111.624 105.8C112.124 105.967 112.857 106.05 113.824 106.05H115.324C117.157 106.05 118.774 105.45 120.174 104.25C121.574 103.05 122.574 101.433 123.174 99.4C123.207 99.3333 123.307 99.3167 123.474 99.35C123.674 99.35 123.774 99.3833 123.774 99.45C123.54 101.183 123.424 103.45 123.424 106.25C123.424 106.517 123.357 106.717 123.224 106.85C123.124 106.95 122.94 107 122.674 107H102.824C102.757 107 102.724 106.9 102.724 106.7C102.724 106.5 102.757 106.4 102.824 106.4C103.757 106.4 104.44 106.317 104.874 106.15C105.307 105.983 105.59 105.667 105.724 105.2C105.89 104.7 105.974 103.95 105.974 102.95V87.65C105.974 86.65 105.89 85.9167 105.724 85.45C105.59 84.9833 105.307 84.6667 104.874 84.5C104.44 84.3 103.757 84.2 102.824 84.2C102.757 84.2 102.724 84.1 102.724 83.9C102.724 83.7 102.757 83.6 102.824 83.6L105.224 83.65C106.557 83.7167 107.59 83.75 108.324 83.75C109.19 83.75 110.29 83.7167 111.624 83.65L113.874 83.6C113.974 83.6 114.024 83.7 114.024 83.9C114.024 84.1 113.974 84.2 113.874 84.2C112.84 84.2 112.074 84.3 111.574 84.5C111.107 84.6667 110.79 85 110.624 85.5C110.457 85.9667 110.374 86.7 110.374 87.7V102.75ZM143.665 102.75C143.665 103.65 143.748 104.333 143.915 104.8C144.115 105.267 144.448 105.6 144.915 105.8C145.415 105.967 146.148 106.05 147.115 106.05H148.615C150.448 106.05 152.065 105.45 153.465 104.25C154.865 103.05 155.865 101.433 156.465 99.4C156.498 99.3333 156.598 99.3167 156.765 99.35C156.965 99.35 157.065 99.3833 157.065 99.45C156.831 101.183 156.715 103.45 156.715 106.25C156.715 106.517 156.648 106.717 156.515 106.85C156.415 106.95 156.231 107 155.965 107H136.115C136.048 107 136.015 106.9 136.015 106.7C136.015 106.5 136.048 106.4 136.115 106.4C137.048 106.4 137.731 106.317 138.165 106.15C138.598 105.983 138.881 105.667 139.015 105.2C139.181 104.7 139.265 103.95 139.265 102.95V87.65C139.265 86.65 139.181 85.9167 139.015 85.45C138.881 84.9833 138.598 84.6667 138.165 84.5C137.731 84.3 137.048 84.2 136.115 84.2C136.048 84.2 136.015 84.1 136.015 83.9C136.015 83.7 136.048 83.6 136.115 83.6L138.515 83.65C139.848 83.7167 140.881 83.75 141.615 83.75C142.481 83.75 143.581 83.7167 144.915 83.65L147.165 83.6C147.265 83.6 147.315 83.7 147.315 83.9C147.315 84.1 147.265 84.2 147.165 84.2C146.131 84.2 145.365 84.3 144.865 84.5C144.398 84.6667 144.081 85 143.915 85.5C143.748 85.9667 143.665 86.7 143.665 87.7V102.75Z" fill="white"/>
</svg>
